<svg width="2892" height="1954" viewBox="0 0 2892 1954" fill="none" xmlns="http://www.w3.org/2000/svg">
<path d="M1441 407L1004 789.5V1164.5L1441 1547H2516V407H1441Z" fill="#4B4949"/>
<rect x="1521" y="407" width="239" height="754" fill="#2D2A2A"/>
<rect x="2069" y="1085" width="97" height="462" fill="#469C6B"/>
<rect x="1584" y="1316" width="485" height="198" fill="#643633"/>
<circle cx="2118" cy="1152" r="29" fill="#101010"/>
<circle cx="2270" cy="810" r="29" fill="#555151"/>
<circle cx="2118" cy="1251" r="29" fill="#101010"/>
<circle cx="2118" cy="1350" r="29" fill="#101010"/>
<circle cx="2118" cy="1449" r="29" fill="#101010"/>
<rect x="1894" y="454" width="376" height="283" fill="#4A7A5F"/>
<rect x="1789" y="510" width="105" height="166" fill="#469C6B"/>
<rect x="2177" y="489" width="45" height="214" fill="#469C6B"/>
<rect x="2177" y="763" width="45" height="18" fill="#9F9F9F"/>
<rect x="2177" y="800" width="45" height="18" fill="#9F9F9F"/>
<rect x="2177" y="837" width="45" height="18" fill="#9F9F9F"/>
<circle cx="2199.5" cy="520.5" r="13.5" fill="#101010"/>
<ellipse cx="2199.5" cy="566" rx="13.5" ry="13" fill="#101010"/>
<circle cx="2199.5" cy="611.5" r="13.5" fill="#101010"/>
<circle cx="2199.5" cy="657.5" r="13.5" fill="#101010"/>
<rect x="1891" y="946" width="178" height="370" fill="#201F1F"/>
<path d="M1892 948.5V1313.5" stroke="#643633" stroke-width="2"/>
<path d="M2069 948.5V1313.5" stroke="#643633" stroke-width="2"/>
<rect x="1891" y="946" width="178" height="10" fill="#3E3C3C"/>
<rect x="1891" y="1306" width="178" height="10" fill="#353232"/>
<rect x="1992" y="999" width="64" height="6" fill="#9F9F9F"/>
<rect x="1992" y="1010" width="57" height="6" fill="#555151"/>
<rect x="1897" y="965" width="10" height="6" fill="#555151"/>
<rect x="1897" y="977" width="10" height="6" fill="#555151"/>
<rect x="1897" y="989" width="10" height="6" fill="#555151"/>
<rect x="1897" y="1001" width="10" height="6" fill="#555151"/>
<rect x="1897" y="1013" width="10" height="6" fill="#555151"/>
<rect x="1897" y="1025" width="10" height="6" fill="#555151"/>
<rect x="1897" y="1037" width="10" height="6" fill="#555151"/>
<rect x="1897" y="1049" width="10" height="6" fill="#555151"/>
<rect x="1897" y="1061" width="10" height="6" fill="#555151"/>
<rect x="1897" y="1073" width="10" height="6" fill="#555151"/>
<rect x="1897" y="1085" width="10" height="6" fill="#555151"/>
<rect x="1897" y="1097" width="10" height="6" fill="#555151"/>
<rect x="1897" y="1109" width="10" height="6" fill="#555151"/>
<rect x="1897" y="1121" width="10" height="6" fill="#555151"/>
<rect x="1897" y="1133" width="10" height="6" fill="#555151"/>
<rect x="1897" y="1145" width="10" height="6" fill="#555151"/>
<rect x="2016" y="1021" width="40" height="6" fill="#555151"/>
<circle cx="2027" cy="1251" r="29" fill="#555151"/>
<circle cx="2027" cy="1251" r="22" fill="#201F1F"/>
<rect x="1048" y="805" width="473" height="343" fill="#3C3636"/>
<circle r="7.5" transform="matrix(-1 0 0 1 1497.5 833.5)" fill="#101010"/>
<circle r="7.5" transform="matrix(-1 0 0 1 1076.5 833.5)" fill="#101010"/>
<circle r="7.5" transform="matrix(-1 0 0 1 1497.5 1122.5)" fill="#101010"/>
<circle r="7.5" transform="matrix(-1 0 0 1 1076.5 1122.5)" fill="#101010"/>
<circle cx="1285" cy="974" r="145" fill="#7A7373"/>
<rect x="823" y="939.5" width="408" height="61" fill="#252525"/>
<rect x="832" y="953.5" width="391" height="33" fill="#3E3C3C"/>
<rect x="651" y="953.5" width="172" height="33" fill="#252525"/>
<rect x="1231" y="953.5" width="89" height="33" fill="#252525"/>
<rect x="1288" y="953.5" width="89" height="33" fill="#252525"/>
<rect x="662" y="910.5" width="5" height="128" fill="#555151"/>
<rect x="515" y="910.5" width="926" height="8" fill="#555151"/>
<rect x="515" y="1034.5" width="926" height="8" fill="#555151"/>
<circle cx="1295" cy="970.5" r="38" fill="#3E3C3C"/>
<circle cx="664" cy="914.5" r="10" fill="#252525"/>
<circle cx="664" cy="1038.5" r="10" fill="#252525"/>
<circle cx="519" cy="914.5" r="10" fill="#252525"/>
<circle cx="519" cy="1038.5" r="10" fill="#252525"/>
<ellipse cx="1441" cy="976.5" rx="57" ry="66" fill="#252525"/>
<rect x="264" y="936.5" width="120" height="75" rx="37" fill="#555151"/>
<rect x="286" y="908.5" width="229" height="12" fill="#555151"/>
<rect x="286" y="1032.5" width="229" height="12" fill="#555151"/>
<circle cx="1397" cy="970.5" r="38" fill="#3E3C3C"/>
<rect x="416" y="908" width="67" height="137" fill="#252525"/>
<rect x="1022" y="908" width="67" height="137" fill="#555151"/>
<path d="M145 991.5H1.5V1013L101.5 1069L231.5 1047.5V977H145V991.5Z" fill="#C1BA91"/>
<path d="M144.748 962.5H0L0 941L100.87 885L232 906.5V977H144.748V962.5Z" fill="#C1BA91"/>
<rect x="223" y="890.5" width="67" height="165" fill="#252525"/>
<path d="M2325.5 410V291.5H2401.5V410L2364 332L2325.5 410Z" fill="#2D2A2A"/>
<rect x="1037" y="134" width="36" height="134" fill="#7A7373"/>
<rect width="32" height="210" transform="matrix(-1 0 0 1 1859 197)" fill="#2D2A2A"/>
<rect width="250" height="26" transform="matrix(-1 0 0 1 2291 266)" fill="#2D2A2A"/>
<rect width="100" height="46" transform="matrix(-1 0 0 1 2416 246)" fill="#252525"/>
<rect width="176" height="46" transform="matrix(-1 0 0 1 2592 246)" fill="#7A7373"/>
<rect width="49" height="39" transform="matrix(-1 0 0 1 2316 253)" fill="#252525"/>
<rect x="823" width="458" height="134" fill="#2D2A2A"/>
<rect x="2645" y="134" width="36" height="134" fill="#7A7373"/>
<rect x="2431" width="458" height="134" fill="#2D2A2A"/>
<rect x="2465" y="246" width="301" height="109" fill="#2D2A2A"/>
<rect x="2634" y="241" width="132" height="33" fill="#C1BA91"/>
<rect x="2634" y="323" width="132" height="33" fill="#C1BA91"/>
<rect x="2682" y="274" width="35" height="49" fill="#C1BA91"/>
<rect x="1215" y="253" width="826" height="59" fill="#7A7373"/>
<rect x="933" y="253" width="301" height="102" fill="#2D2A2A"/>
<path d="M2328.5 1544V1662.5H2404.5V1544L2367 1622L2328.5 1544Z" fill="#2D2A2A"/>
<rect width="36" height="134" transform="matrix(1 0 0 -1 1040 1820)" fill="#7A7373"/>
<rect x="1862" y="1757" width="32" height="210" transform="rotate(-180 1862 1757)" fill="#2D2A2A"/>
<rect x="2294" y="1688" width="250" height="26" transform="rotate(-180 2294 1688)" fill="#2D2A2A"/>
<rect x="2419" y="1708" width="100" height="46" transform="rotate(-180 2419 1708)" fill="#252525"/>
<rect x="2595" y="1708" width="176" height="46" transform="rotate(-180 2595 1708)" fill="#7A7373"/>
<rect x="2319" y="1701" width="49" height="39" transform="rotate(-180 2319 1701)" fill="#252525"/>
<rect width="458" height="134" transform="matrix(1 0 0 -1 826 1954)" fill="#2D2A2A"/>
<rect width="36" height="134" transform="matrix(1 0 0 -1 2648 1820)" fill="#7A7373"/>
<rect width="458" height="134" transform="matrix(1 0 0 -1 2434 1954)" fill="#2D2A2A"/>
<rect width="301" height="109" transform="matrix(1 0 0 -1 2468 1708)" fill="#2D2A2A"/>
<rect width="132" height="33" transform="matrix(1 0 0 -1 2637 1713)" fill="#C1BA91"/>
<rect width="132" height="33" transform="matrix(1 0 0 -1 2637 1631)" fill="#C1BA91"/>
<rect width="35" height="49" transform="matrix(1 0 0 -1 2685 1680)" fill="#C1BA91"/>
<rect width="826" height="59" transform="matrix(1 0 0 -1 1218 1701)" fill="#7A7373"/>
<rect width="301" height="102" transform="matrix(1 0 0 -1 936 1701)" fill="#2D2A2A"/>
<ellipse cx="2699.5" cy="258" rx="6.5" ry="6" fill="#101010"/>
<ellipse cx="2699.5" cy="340" rx="6.5" ry="6" fill="#101010"/>
<ellipse cx="2699.5" cy="301" rx="6.5" ry="6" fill="#101010"/>
<ellipse cx="2702.5" cy="1613" rx="6.5" ry="6" fill="#101010"/>
<ellipse cx="2702.5" cy="1695" rx="6.5" ry="6" fill="#101010"/>
<ellipse cx="2702.5" cy="1656" rx="6.5" ry="6" fill="#101010"/>
<circle cx="2363.5" cy="268.5" r="13.5" fill="#7A7373"/>
<circle cx="2363.5" cy="1685.5" r="13.5" fill="#7A7373"/>
</svg>
