<?xml version="1.0" standalone="no"?>
<!DOCTYPE svg PUBLIC "-//W3C//DTD SVG 20010904//EN"
 "http://www.w3.org/TR/2001/REC-SVG-20010904/DTD/svg10.dtd">
<svg version="1.0" xmlns="http://www.w3.org/2000/svg"
 width="300.000000pt" height="250.000000pt" viewBox="0 0 300.000000 250.000000"
 preserveAspectRatio="xMidYMid meet">
<metadata>
Created by potrace 1.10, written by Peter Selinger 2001-2011
</metadata>
<g transform="translate(0.000000,250.000000) scale(0.100000,-0.100000)"
fill="#000000" stroke="none">
<path d="M2525 2319 c-5 -8 24 -14 48 -10 5 1 6 -2 3 -7 -3 -5 -1 -22 3 -38
l8 -29 8 29 c4 16 4 36 -1 44 -11 17 -61 25 -69 11z"/>
<path d="M2435 2281 c-58 -27 -148 -66 -445 -197 -389 -170 -424 -186 -437
-196 -7 -5 -17 -7 -23 -3 -5 3 -10 1 -10 -5 0 -7 -7 -10 -15 -6 -8 3 -15 1
-15 -5 0 -6 -4 -7 -10 -4 -5 3 -10 1 -10 -5 0 -7 -7 -9 -16 -6 -10 4 -13 2 -8
-6 5 -8 2 -9 -10 -5 -11 5 -15 3 -10 -4 4 -7 1 -10 -7 -7 -8 3 -20 -2 -28 -9
-7 -8 -20 -12 -28 -9 -9 4 -11 2 -7 -6 5 -8 2 -9 -9 -5 -10 4 -17 1 -17 -5 0
-6 -3 -9 -6 -5 -4 3 -13 -1 -21 -9 -9 -8 -22 -13 -30 -10 -8 3 -11 2 -8 -3 3
-5 -4 -13 -16 -16 -28 -9 -15 -19 44 -35 26 -7 46 -14 44 -17 -6 -6 -111 19
-117 27 -7 11 -81 -20 -75 -31 3 -5 25 -14 48 -20 68 -18 79 -19 74 -6 -2 7
-13 12 -24 12 -12 0 -24 3 -28 7 -4 4 6 5 21 4 16 -2 35 -4 42 -5 7 0 10 -5 7
-11 -3 -5 2 -10 12 -10 10 -1 29 -7 42 -14 22 -12 32 -10 95 19 39 18 186 85
326 149 285 130 386 179 353 173 -20 -4 -22 0 -25 54 -3 60 7 82 15 32 l4 -28
2 27 c1 27 44 59 134 100 32 15 37 15 37 2 0 -8 -4 -13 -8 -10 -4 2 -7 -20 -7
-49 l0 -54 -63 -32 c-99 -50 -66 -44 54 9 133 59 194 91 174 91 -8 0 -40 -13
-70 -29 -30 -17 -63 -30 -72 -30 -22 0 -24 28 -3 36 9 4 15 20 15 43 0 33 5
38 50 63 28 16 52 23 55 18 3 -6 0 -10 -7 -10 -15 -1 -102 -130 -87 -130 5 0
12 7 15 15 4 8 12 15 19 15 18 0 39 27 25 32 -7 2 -5 11 5 23 17 20 17 20 11
0 -5 -17 -3 -16 14 5 11 14 22 33 26 43 11 33 22 17 13 -20 -12 -52 -11 -60 5
-66 16 -6 116 32 116 44 0 11 -61 -10 -81 -27 -26 -23 -32 -16 -26 35 3 28 1
53 -5 59 -6 6 -6 12 1 16 6 4 37 -11 70 -34 61 -40 81 -48 81 -30 0 6 -4 10
-8 10 -4 0 -28 18 -52 40 -24 22 -49 40 -55 39 -5 0 -28 -8 -50 -18z m105 -38
c0 -7 -39 17 -46 28 -3 6 5 3 20 -6 14 -10 26 -19 26 -22z m-464 -207 l0 -53
-48 -19 c-26 -10 -48 -21 -48 -25 0 -7 -167 -72 -174 -67 -3 2 -11 -5 -18 -15
-7 -9 -28 -21 -45 -26 l-33 -10 0 55 c0 36 -4 54 -12 54 -7 0 -5 5 5 11 10 6
21 8 24 5 6 -6 59 19 83 39 8 6 23 15 34 19 15 5 17 2 13 -14 -3 -11 -1 -18 4
-14 5 3 9 13 9 24 0 19 19 30 49 30 10 0 34 11 54 24 19 13 45 27 57 31 19 6
22 4 17 -9 -4 -10 -3 -15 3 -11 6 3 10 13 10 22 0 9 3 13 8 9 4 -4 7 -31 8
-60z m-376 -170 l0 -51 -45 -18 c-44 -19 -70 -16 -62 6 2 7 9 13 15 13 7 1 17
2 24 3 6 0 8 4 5 8 -4 3 -1 13 6 21 10 13 9 14 -2 8 -9 -6 -12 -5 -9 5 3 8 10
13 16 12 13 -3 37 36 27 45 -3 3 -8 -4 -12 -17 -4 -17 -8 -19 -15 -9 -7 11
-10 10 -18 -2 -5 -8 -24 -40 -44 -70 -19 -30 -32 -57 -30 -60 3 -3 10 3 15 13
10 16 29 15 29 -2 0 -13 -88 -50 -108 -44 -13 3 -25 -3 -35 -17 l-15 -21 -98
29 c-83 25 -95 30 -74 37 14 4 79 32 146 61 66 30 129 54 140 54 11 0 31 8 44
18 35 25 73 40 88 34 7 -2 12 -23 12 -56z m-77 -31 c-3 -9 -8 -14 -10 -11 -3
3 -2 9 2 15 9 16 15 13 8 -4z m-433 -125 c0 -5 -5 -10 -11 -10 -5 0 -7 5 -4
10 3 6 8 10 11 10 2 0 4 -4 4 -10z m195 -20 c13 -6 15 -9 5 -9 -8 0 -22 4 -30
9 -18 12 -2 12 25 0z"/>
<path d="M1983 2013 c-52 -77 -56 -83 -46 -83 4 0 25 27 46 59 28 44 43 58 55
54 10 -3 13 -1 7 4 -5 4 -13 12 -17 16 -3 5 -24 -18 -45 -50z"/>
<path d="M1893 1960 c0 -30 2 -43 4 -27 2 15 2 39 0 55 -2 15 -4 2 -4 -28z"/>
<path d="M2000 1990 c-6 -11 -8 -20 -6 -20 3 0 10 9 16 20 6 11 8 20 6 20 -3
0 -10 -9 -16 -20z"/>
<path d="M1787 1920 c-26 -38 -43 -71 -38 -74 4 -3 13 6 20 20 6 14 15 23 20
20 5 -3 15 2 22 12 13 15 12 16 -3 3 -22 -17 -23 -8 -1 25 10 16 19 21 23 14
5 -8 9 -6 13 5 4 10 3 14 -4 9 -8 -4 -9 1 -4 15 11 35 0 24 -48 -49z"/>
<path d="M1731 1894 c0 -11 3 -14 6 -6 3 7 2 16 -1 19 -3 4 -6 -2 -5 -13z"/>
<path d="M1531 1818 c0 -31 3 -37 8 -24 7 18 3 66 -5 66 -2 0 -4 -19 -3 -42z"/>
<path d="M2626 2186 c-32 -31 -36 -40 -36 -85 0 -49 -1 -51 -40 -71 -45 -23
-50 -24 -50 -10 0 6 11 15 24 19 26 11 43 75 25 98 -9 10 -5 15 16 23 15 6 26
13 23 15 -3 3 -88 -32 -189 -78 -101 -46 -322 -146 -492 -222 -169 -76 -306
-140 -304 -142 2 -2 21 4 42 12 20 9 39 14 42 11 8 -7 63 22 63 33 0 5 17 15
38 21 20 7 41 16 47 21 11 11 35 12 34 2 -5 -28 3 -73 11 -68 5 3 7 12 3 20
-7 20 5 67 17 60 5 -3 11 -1 15 5 4 6 11 8 16 5 5 -4 9 -2 9 4 0 14 29 41 46
41 8 0 14 -7 14 -15 0 -8 -6 -12 -13 -9 -8 3 -31 -23 -60 -66 -25 -38 -42 -70
-38 -70 5 0 19 16 31 35 22 36 37 47 26 20 -8 -22 2 -18 15 6 8 17 8 20 -1 14
-8 -5 -11 -3 -8 6 3 8 11 13 19 12 8 -1 22 13 31 32 13 25 14 35 5 35 -6 1 -1
7 13 15 22 12 26 12 38 -2 11 -16 12 -16 12 0 0 9 7 17 15 17 8 0 24 9 36 21
25 25 108 62 125 55 6 -2 20 3 30 12 30 27 94 58 169 83 39 12 75 26 82 31 25
19 23 -14 -4 -49 -15 -21 -28 -40 -30 -42 -1 -2 -12 7 -24 20 l-21 24 15 -25
c12 -22 12 -27 0 -39 -8 -7 -12 -16 -9 -19 4 -3 13 3 21 14 8 10 15 14 15 7 0
-6 7 -19 16 -27 14 -14 17 -14 36 4 37 35 44 28 29 -30 -5 -19 -12 -48 -15
-63 l-7 -28 -46 40 c-51 45 -63 48 -98 25 -25 -17 -39 -51 -50 -124 -4 -25
-25 -108 -46 -185 -38 -135 -48 -186 -28 -136 12 29 31 16 23 -16 -5 -18 -12
-21 -42 -18 -21 2 -45 6 -55 10 -32 13 -31 -4 2 -22 17 -10 29 -23 27 -30 -3
-6 -8 -27 -11 -47 -5 -23 -14 -38 -27 -42 -27 -8 -43 9 -23 26 8 7 15 18 15
26 0 7 7 19 15 27 12 13 12 16 1 20 -9 4 -20 -9 -31 -39 -9 -24 -22 -44 -28
-44 -11 0 -500 140 -504 144 -7 6 32 86 41 86 6 0 114 -29 241 -65 126 -36
236 -65 244 -65 13 0 13 2 1 14 -14 14 -62 28 -102 30 -10 0 -18 3 -18 6 0 9
-69 32 -106 34 -18 2 -41 9 -50 17 -12 9 -15 10 -10 2 4 -7 3 -13 -2 -13 -6 0
-13 8 -16 17 -6 15 -8 15 -17 3 -8 -13 -10 -13 -18 0 -6 8 -13 11 -17 7 -4 -4
-13 1 -20 11 -8 10 -13 12 -14 5 0 -7 -5 -13 -11 -13 -5 0 -7 5 -4 10 4 7 -3
9 -22 5 -18 -4 -23 -3 -15 3 30 21 -96 3 -148 -22 -30 -14 -65 -26 -76 -26
-22 0 -201 -75 -219 -91 -5 -5 -16 -9 -25 -9 -10 0 -26 -8 -38 -17 -11 -10
-34 -25 -50 -34 -21 -12 -31 -26 -34 -50 -6 -38 -2 -52 13 -43 5 3 8 20 6 39
l-4 33 139 66 c76 36 143 66 148 66 6 0 10 4 10 10 0 5 3 9 8 8 4 -1 19 2 34
6 21 6 34 3 54 -13 15 -12 37 -21 50 -21 14 0 32 -4 42 -10 9 -5 76 -26 147
-45 72 -20 137 -38 146 -41 14 -4 12 -10 -12 -34 -57 -56 -33 -110 56 -126 22
-4 77 -20 122 -35 45 -16 91 -29 103 -29 12 0 29 -4 39 -10 27 -14 57 12 91
81 31 60 36 65 57 51 9 -6 8 -25 -6 -82 -11 -41 -33 -136 -51 -210 -18 -74
-35 -140 -37 -146 -2 -6 5 -14 15 -16 16 -4 18 -1 14 15 -3 14 -1 18 7 13 6
-4 21 2 34 13 12 12 30 27 39 34 16 11 16 14 -2 37 l-20 25 0 -28 c0 -28 -20
-57 -38 -57 -5 0 -3 21 4 48 6 26 17 46 24 44 6 -1 9 2 5 8 -3 6 -11 8 -16 5
-5 -4 -9 9 -9 27 l1 33 14 -25 c16 -28 21 -19 5 10 -6 11 -7 38 -3 62 6 39 7
41 15 18 6 -20 7 -18 3 9 -3 18 0 52 5 75 19 72 17 70 45 52 31 -21 33 -3 2
20 l-23 18 29 125 c59 261 57 248 43 276 -7 13 -16 22 -19 18 -11 -10 -8 -53
3 -53 6 0 10 -5 10 -11 0 -5 -4 -8 -9 -5 -5 3 -11 -5 -13 -19 -3 -14 -1 -25 4
-25 5 0 4 -9 -2 -19 -5 -11 -10 -32 -10 -48 0 -48 -44 -233 -55 -229 -11 4
-11 17 0 58 6 22 3 29 -11 35 -11 4 -25 14 -32 22 -8 9 -10 10 -6 2 5 -9 1
-12 -12 -8 -11 3 -34 8 -52 12 -44 9 -30 27 16 20 23 -3 30 -2 19 3 -17 7 -17
9 -4 21 13 10 20 7 45 -19 l30 -31 25 113 c32 139 43 227 29 213 -6 -5 -13
-28 -16 -50 -2 -22 -5 -42 -5 -43 -1 -2 -17 15 -36 39 -41 48 -37 58 24 66 27
4 41 11 41 21 0 11 -9 13 -41 9 l-40 -5 6 41 c12 73 20 76 54 22 17 -27 31
-42 31 -33 0 9 -4 20 -10 23 -5 3 -10 17 -10 31 0 14 -7 32 -15 40 -42 43 15
46 66 5 l36 -30 -9 -72 c-10 -86 -5 -137 6 -64 12 79 25 123 41 138 8 8 11 17
8 20 -5 6 10 82 39 196 6 24 11 50 11 57 0 8 6 14 12 14 6 0 21 11 33 25 34
38 1 31 -42 -9z m-643 -331 c-3 -9 -8 -14 -10 -11 -3 3 -2 9 2 15 9 16 15 13
8 -4z m400 -207 l28 -43 -28 -6 c-60 -14 -65 -12 -58 24 16 82 20 83 58 25z
m10 -90 c-3 -18 -10 -41 -14 -50 -5 -9 -6 -24 -3 -32 11 -28 -13 -17 -41 19
-31 41 -27 65 10 65 15 0 23 4 20 10 -4 6 1 7 11 3 12 -4 15 -3 10 5 -4 7 -3
12 3 12 6 0 8 -13 4 -32z m-785 -33 c-9 -9 -20 -10 -38 -3 -20 7 -22 11 -10
18 22 14 28 12 33 -7 3 -13 6 -10 12 12 7 23 10 26 13 11 2 -10 -2 -24 -10
-31z m29 23 c-3 -8 -6 -5 -6 6 -1 11 2 17 5 13 3 -3 4 -12 1 -19z m623 -149
c0 9 6 11 18 6 9 -4 30 -9 47 -11 36 -5 55 -23 46 -46 -4 -13 -10 -15 -21 -8
-12 8 -13 12 -2 19 11 7 11 9 -2 14 -11 5 -16 0 -16 -14 0 -11 -7 -34 -16 -51
-9 -16 -11 -27 -5 -24 15 10 14 -5 -3 -46 -22 -53 -35 -59 -97 -50 -35 5 -53
13 -51 21 1 7 -2 10 -7 7 -13 -9 -181 34 -181 46 0 5 -5 6 -10 3 -16 -10 -40
14 -40 39 0 12 11 34 25 49 27 28 47 36 43 15 -2 -6 25 -18 62 -28 38 -9 59
-19 50 -22 -10 -5 -8 -7 7 -7 12 -1 25 -5 28 -11 9 -14 -5 -13 -70 10 -67 23
-65 23 -65 11 0 -5 37 -18 83 -29 72 -17 82 -22 81 -41 -1 -28 6 -20 50 61 21
40 33 74 30 85 -5 15 -4 16 5 3 8 -12 11 -12 11 -1z m-233 -35 c-3 -3 -12 -4
-19 -1 -8 3 -5 6 6 6 11 1 17 -2 13 -5z m40 -10 c-3 -3 -12 -4 -19 -1 -8 3 -5
6 6 6 11 1 17 -2 13 -5z m272 -55 c-19 -12 -24 -2 -8 17 9 11 14 13 17 4 3 -7
-2 -16 -9 -21z m-152 7 c12 -12 -17 -13 -33 -1 -18 14 -18 14 5 10 13 -2 26
-6 28 -9z"/>
<path d="M2710 2209 c0 -5 7 -9 15 -9 8 0 18 -12 21 -26 4 -17 10 -22 16 -16
7 7 5 18 -6 33 -16 23 -46 35 -46 18z"/>
<path d="M2650 2161 c0 -15 29 -33 41 -25 7 4 9 3 5 -4 -3 -6 2 -16 13 -21 27
-15 29 -14 42 10 8 16 8 20 0 15 -6 -4 -26 2 -45 13 -35 22 -56 27 -56 12z"/>
<path d="M2161 2085 c-22 -36 -37 -65 -33 -65 4 0 13 9 20 20 7 12 17 18 22
15 5 -3 12 0 16 6 4 8 3 9 -4 5 -19 -12 -14 7 13 47 14 20 22 37 16 37 -5 0
-27 -29 -50 -65z"/>
<path d="M2723 2070 c-3 -11 -9 -20 -13 -20 -11 0 -34 -99 -32 -135 l2 -30
-17 24 c-36 50 -53 65 -27 23 15 -23 25 -45 22 -47 -3 -3 -22 -6 -42 -7 -20
-1 -36 -6 -36 -11 0 -9 14 -7 100 7 8 2 15 10 15 19 0 8 4 19 8 23 12 13 8 24
-10 25 -14 0 -13 2 5 9 23 10 30 30 10 30 -7 0 -4 6 5 13 9 6 18 26 20 42 2
17 7 36 11 43 4 7 2 12 -4 12 -7 0 -14 -9 -17 -20z"/>
<path d="M2405 2068 c-2 -7 -5 -24 -8 -38 -2 -14 -7 -32 -11 -40 -4 -11 -1
-16 11 -16 15 0 19 10 21 53 2 50 -4 69 -13 41z"/>
<path d="M2313 1993 c-52 -77 -56 -83 -46 -83 11 0 96 130 90 137 -3 2 -23
-22 -44 -54z"/>
<path d="M2658 2043 c7 -3 16 -2 19 1 4 3 -2 6 -13 5 -11 0 -14 -3 -6 -6z"/>
<path d="M2221 1938 c-1 -57 -1 -58 -42 -78 -23 -12 -43 -19 -46 -16 -4 3 -12
-2 -19 -12 -20 -27 -27 -6 -8 23 10 15 20 23 22 17 2 -6 10 -8 18 -5 7 3 11 9
8 14 -3 5 -10 6 -16 3 -6 -4 -9 -1 -6 7 3 8 10 14 16 14 5 0 14 4 19 9 5 5 2
6 -6 1 -9 -5 -12 -3 -9 6 3 8 10 14 16 14 6 0 17 7 24 15 11 12 11 12 -6 0
-18 -14 -19 -13 -13 3 14 36 -10 14 -54 -53 -29 -43 -43 -72 -37 -78 6 -6 2
-11 -11 -15 -18 -4 -21 0 -22 31 0 21 -4 46 -9 57 -7 14 -9 2 -7 -40 l2 -60
-40 -18 c-22 -11 -44 -20 -50 -21 -5 -1 -17 -6 -25 -11 -17 -11 -61 -35 -65
-35 -1 0 -3 23 -4 52 -1 28 -4 54 -7 57 -3 3 -5 -14 -4 -39 3 -72 2 -74 -48
-94 -26 -11 -58 -28 -71 -38 -39 -30 1 -22 72 14 34 18 65 31 70 30 4 -1 7 3
7 9 0 5 5 7 10 4 6 -3 10 -1 10 5 0 6 5 8 10 5 6 -3 10 -1 10 4 0 6 3 10 8 9
15 -4 82 24 82 34 0 6 3 9 6 5 4 -3 30 6 58 20 28 15 54 26 59 25 4 -1 7 3 7
8 0 6 3 9 8 8 11 -4 95 34 104 47 4 5 8 6 8 2 0 -5 20 3 44 17 24 14 45 23 48
21 3 -3 12 3 21 13 15 16 15 19 2 19 -8 0 -15 -4 -15 -9 0 -4 -9 -8 -20 -8
-11 0 -20 -4 -20 -9 0 -5 -8 -11 -17 -14 -10 -2 -25 -8 -35 -12 -13 -5 -18 3
-26 47 l-10 53 -1 -57z"/>
<path d="M2435 1920 c3 -5 8 -10 11 -10 2 0 4 5 4 10 0 6 -5 10 -11 10 -5 0
-7 -4 -4 -10z"/>
<path d="M2670 1850 c0 -19 3 -21 12 -12 9 9 9 15 0 24 -9 9 -12 7 -12 -12z"/>
<path d="M2570 1816 c0 -24 18 -28 30 -6 9 17 8 20 -10 20 -11 0 -20 -6 -20
-14z"/>
<path d="M2634 1815 c1 -8 7 -20 13 -26 8 -8 7 -18 -3 -37 -7 -14 -16 -50 -20
-80 -4 -34 -10 -49 -15 -41 -9 16 -13 7 -28 -58 -6 -30 -6 -41 2 -36 7 4 8 0
4 -11 -10 -25 -21 -102 -14 -96 3 3 8 17 11 30 11 56 15 71 20 79 4 5 0 12 -6
15 -10 3 -9 8 3 15 14 9 31 57 34 96 0 6 4 16 8 23 5 6 6 16 2 21 -3 5 0 13 6
16 5 4 8 13 5 20 -2 7 -2 16 2 19 12 13 12 50 0 58 -19 12 -26 10 -24 -7z
m-27 -227 c-3 -8 -6 -5 -6 6 -1 11 2 17 5 13 3 -3 4 -12 1 -19z"/>
<path d="M1749 1749 c-20 -30 -41 -65 -48 -79 l-12 -25 23 26 c13 14 29 24 36
21 7 -2 12 1 12 8 0 6 -4 8 -10 5 -17 -11 -11 5 16 40 14 19 24 39 22 46 -2 6
-20 -13 -39 -42z"/>
<path d="M1791 1766 c-24 -39 -27 -52 -7 -34 8 7 14 15 13 18 -1 3 4 15 11 28
20 35 6 26 -17 -12z"/>
<path d="M2556 1759 c-11 -32 -25 -93 -23 -96 2 -1 20 0 42 4 33 5 36 8 21 19
-10 7 -13 15 -7 18 5 3 11 0 14 -6 2 -7 7 -11 9 -8 3 3 -8 22 -23 44 -19 25
-30 34 -33 25z m24 -39 c0 -5 -5 -10 -11 -10 -5 0 -7 5 -4 10 3 6 8 10 11 10
2 0 4 -4 4 -10z"/>
<path d="M1550 1714 l-25 -15 25 7 c14 3 29 10 35 15 15 14 -7 10 -35 -7z"/>
<path d="M1672 1700 c0 -14 2 -19 5 -12 2 6 2 18 0 25 -3 6 -5 1 -5 -13z"/>
<path d="M1092 1703 c-6 -3 -9 -10 -6 -15 5 -7 2 -8 -5 -4 -7 5 -35 -2 -62
-13 l-50 -22 -28 20 -28 20 -124 -53 c-68 -29 -133 -57 -144 -60 -18 -6 -16
-9 13 -28 42 -26 28 -38 -43 -37 -42 0 -46 2 -26 10 13 5 33 7 45 3 21 -6 21
-6 1 13 -11 11 -25 18 -32 16 -15 -6 -102 -111 -116 -140 -5 -13 -17 -25 -26
-28 -9 -3 -27 -21 -41 -39 -14 -18 -30 -31 -37 -29 -23 9 -14 -12 17 -42 27
-26 45 -24 19 2 -14 14 40 95 59 88 6 -2 12 1 12 8 0 19 91 128 103 124 24 -8
14 -29 -63 -130 -44 -59 -80 -111 -80 -117 0 -6 -12 -16 -27 -22 -40 -17 -40
-18 -14 -37 l24 -18 -38 -39 c-21 -21 -56 -63 -78 -94 -22 -30 -58 -76 -80
-102 -21 -27 -34 -48 -29 -48 6 0 13 6 16 13 5 9 7 9 12 0 4 -9 14 -3 30 16
13 16 24 33 24 37 -1 5 -10 -2 -20 -15 -11 -13 -20 -19 -20 -14 0 13 35 44 42
37 3 -3 15 8 27 24 23 33 27 47 10 36 -7 -4 -1 7 11 24 13 18 26 30 28 27 3
-2 -1 -11 -8 -20 -18 -21 4 -19 23 3 13 14 14 21 5 30 -6 6 -8 15 -4 19 4 4
11 1 16 -7 8 -12 10 -11 10 6 0 20 33 64 49 64 4 0 13 -11 19 -25 10 -22 8
-33 -19 -80 -17 -30 -35 -53 -40 -50 -4 3 -6 12 -2 20 3 10 1 13 -9 10 -8 -3
-15 -12 -15 -20 0 -8 5 -11 10 -8 5 3 7 0 5 -8 -3 -8 -10 -13 -16 -12 -6 2
-24 -14 -39 -34 -15 -19 -35 -43 -43 -53 -22 -25 -64 -104 -51 -96 6 4 11 3
11 -3 0 -5 -8 -15 -17 -21 -16 -10 -16 -10 2 -7 11 2 40 -10 64 -26 l44 -30
-29 -16 c-16 -8 -36 -14 -44 -13 -10 1 -11 -1 -2 -4 6 -3 12 -11 12 -16 0 -6
-3 -8 -7 -5 -3 4 -11 0 -17 -9 -14 -19 -47 -25 -63 -11 -9 6 -13 6 -13 -2 0
-6 11 -13 25 -17 25 -6 25 -6 5 -24 -11 -9 -20 -22 -20 -29 0 -6 -7 -11 -15
-11 -8 0 -15 5 -15 11 0 5 -4 7 -10 4 -13 -8 -52 14 -45 26 4 5 -1 9 -9 9 -33
0 -23 -20 24 -50 l50 -32 93 97 c50 54 91 104 91 112 -1 7 2 11 6 8 11 -7 53
52 45 64 -3 5 0 13 6 17 8 4 9 3 5 -4 -4 -7 -5 -12 -3 -12 8 0 68 90 60 90 -4
0 -1 6 8 13 20 16 65 95 73 129 4 18 14 28 29 30 20 3 18 6 -18 28 -22 14 -47
26 -55 26 -8 1 -21 2 -28 3 -7 1 -12 7 -11 14 3 27 -2 37 -18 37 -14 0 -15 2
-5 9 11 7 11 9 -2 14 -20 8 -21 27 -1 27 8 0 15 4 15 8 0 18 57 75 68 68 9 -5
2 -20 -21 -49 -18 -23 -32 -48 -31 -54 1 -7 2 -18 3 -24 0 -5 6 -7 11 -4 6 3
10 -1 10 -9 0 -9 5 -16 11 -16 5 0 7 5 3 12 -5 7 -3 8 5 4 15 -9 51 21 51 42
0 9 6 12 15 8 10 -4 22 5 35 27 10 17 23 37 29 43 5 7 7 15 3 18 -3 4 4 9 16
13 17 4 20 9 12 18 -8 10 -8 15 1 21 7 4 19 -1 29 -13 12 -15 21 -18 38 -12
13 5 22 4 22 -1 0 -5 -14 -13 -32 -18 -21 -5 -38 -19 -50 -41 -10 -18 -14 -30
-8 -26 16 10 12 -6 -6 -26 -10 -12 -14 -25 -9 -36 6 -15 9 -13 16 13 5 17 16
37 24 44 8 7 15 17 15 22 0 6 -7 4 -17 -3 -15 -13 -15 -12 -2 9 8 12 19 20 26
18 6 -3 17 2 24 10 17 21 71 49 89 46 32 -6 60 -26 60 -45 0 -12 5 -17 14 -14
7 3 19 0 27 -6 7 -7 5 0 -4 16 -21 33 -8 35 43 7 23 -13 29 -19 17 -20 -10 0
-32 -14 -49 -30 -30 -30 -30 -31 -12 -58 l17 -27 -21 19 c-12 11 -22 25 -22
32 0 8 -9 19 -20 26 -11 7 -20 19 -20 27 0 11 -3 11 -15 1 -8 -7 -15 -9 -15
-4 0 5 -9 20 -19 33 l-18 24 2 -24 c1 -13 3 -27 4 -30 3 -15 140 -119 157
-119 11 -1 34 -14 53 -30 28 -24 37 -27 57 -18 27 12 41 45 26 60 -13 13 -44
6 -50 -11 -3 -10 1 -12 17 -8 22 5 29 -7 11 -18 -6 -4 -18 -1 -27 7 -9 7 -17
11 -17 8 -1 -2 -15 8 -32 23 -17 15 -39 34 -50 42 -18 13 -18 14 -2 20 12 5
29 -3 53 -24 35 -31 51 -39 41 -22 -4 5 0 12 6 14 7 3 4 6 -7 7 -19 1 -65 32
-65 44 0 11 24 6 40 -9 16 -14 18 -14 23 4 3 13 -4 28 -19 42 -13 12 -24 32
-24 43 0 16 -2 18 -9 7 -7 -11 -17 -7 -49 20 l-40 33 107 51 c58 28 105 55
103 59 -4 10 50 53 84 67 16 6 24 13 17 16 -14 5 -85 -30 -102 -51 -10 -12
-17 -14 -27 -5 -11 9 0 18 54 44 37 19 64 34 61 34 -6 1 -141 -58 -148 -65 -2
-2 7 -12 20 -23 13 -11 21 -23 17 -27 -4 -4 -15 -1 -25 7 -15 12 -16 12 -10
-3 5 -14 -10 -25 -83 -59 -49 -23 -88 -45 -85 -49 2 -4 -7 -12 -21 -19 -35
-16 -44 -13 -14 5 l25 15 -25 -7 c-14 -3 -29 -10 -35 -14 -17 -12 -97 -22 -90
-10 3 5 12 10 20 10 16 0 45 38 45 58 0 8 -5 12 -11 10 -6 -2 -9 -6 -7 -8 2
-3 -9 -18 -24 -34 -26 -29 -27 -29 -53 -12 -26 17 -26 18 -8 39 18 22 18 22
-3 4 -11 -9 -24 -14 -27 -11 -4 4 -13 1 -22 -6 -34 -28 -24 1 14 40 26 27 38
47 34 57 -4 10 -2 14 4 10 6 -4 13 0 17 8 3 8 13 15 21 15 9 0 14 -4 11 -9 -3
-5 3 -11 13 -14 14 -3 17 -11 13 -32 -3 -18 -1 -26 5 -22 14 9 22 67 10 67 -5
0 -20 9 -34 19 -19 15 -30 18 -49 11 -13 -5 -33 -6 -45 -2 -17 7 -10 11 38 26
32 10 81 29 110 42 l52 23 7 -35 c9 -51 20 -49 15 3 -2 32 0 43 8 39 6 -4 11
0 11 8 0 13 5 11 26 -6 26 -23 110 -36 97 -15 -3 6 -1 7 6 3 17 -11 79 15 84
35 5 19 -10 29 -31 22z m-408 -212 c3 -5 -1 -14 -10 -22 -13 -10 -19 -9 -37 9
l-21 22 31 0 c18 0 34 -4 37 -9z m-34 -42 c13 -9 12 -10 -2 -5 -19 6 -44 -27
-40 -54 1 -11 0 -11 -4 -2 -4 9 -14 3 -30 -19 -29 -39 -32 -55 -4 -19 11 14
20 21 20 16 0 -5 9 -1 20 9 11 10 23 16 26 13 9 -10 -20 -48 -33 -43 -7 2 -13
0 -13 -5 0 -6 6 -10 13 -10 7 0 4 -5 -5 -11 -13 -7 -25 -6 -42 3 l-25 13 45
63 c48 66 51 68 74 51z m39 -53 c10 -12 3 -28 -36 -85 -47 -69 -63 -80 -71
-50 -3 12 -2 12 6 0 8 -11 12 -10 21 6 5 11 8 23 5 26 -7 7 34 68 53 80 7 5
11 13 8 18 -4 5 -11 6 -17 3 -7 -4 -8 -2 -4 4 10 16 21 15 35 -2z m-96 -103
c-5 -12 -3 -14 8 -8 8 5 11 5 6 -1 -5 -5 -13 -10 -18 -10 -5 -1 -17 -2 -26 -4
-10 -1 -13 -4 -6 -6 8 -4 8 -12 -2 -32 -8 -14 -12 -29 -8 -32 3 -3 8 1 10 8 3
6 10 12 16 12 6 0 4 -7 -5 -16 -15 -15 -18 -15 -41 3 l-25 20 32 35 c27 29 39
39 63 47 1 1 -1 -6 -4 -16z m-143 -82 c0 -5 -7 -11 -15 -15 -9 -3 -15 0 -15 9
0 8 7 15 15 15 8 0 15 -4 15 -9z m91 -122 l29 -20 -25 -38 c-13 -22 -21 -42
-17 -47 4 -4 1 -4 -6 0 -7 4 -15 1 -18 -9 -4 -9 -13 -14 -21 -10 -12 4 -14 0
-9 -19 3 -14 1 -28 -4 -31 -13 -8 -88 -110 -105 -141 -11 -21 -14 -22 -31 -10
-18 14 -17 17 21 70 22 31 44 65 50 76 5 10 18 18 29 17 14 -2 19 5 20 26 1
17 -3 26 -9 23 -7 -2 -12 2 -12 10 0 7 3 12 6 10 3 -2 12 2 19 10 8 9 9 14 2
14 -8 0 -8 6 0 20 6 11 15 18 20 15 5 -3 14 5 20 17 11 22 10 22 -4 4 -16 -20
-21 -11 -10 18 8 21 20 20 55 -5z m-154 -114 c-4 -8 -2 -17 3 -20 5 -3 -4 -27
-20 -54 -17 -27 -30 -53 -30 -58 0 -5 -7 -10 -15 -10 -8 0 -15 7 -15 15 0 9
-7 6 -20 -9 -10 -13 -19 -19 -20 -13 0 13 31 43 45 43 5 0 11 5 14 12 2 7 -1
9 -9 4 -6 -4 5 18 26 49 36 55 52 71 41 41z m33 -1 c0 -8 -5 -12 -10 -9 -6 4
-8 11 -5 16 9 14 15 11 15 -7z m-109 -169 c5 4 6 -1 3 -9 -5 -12 -9 -13 -19
-3 -7 7 -10 16 -7 22 3 5 7 4 10 -3 2 -7 8 -10 13 -7z"/>
<path d="M535 1250 c-3 -5 -1 -10 4 -10 6 0 11 5 11 10 0 6 -2 10 -4 10 -3 0
-8 -4 -11 -10z"/>
<path d="M525 1220 c3 -5 8 -10 11 -10 2 0 4 5 4 10 0 6 -5 10 -11 10 -5 0 -7
-4 -4 -10z"/>
<path d="M364 948 c-4 -7 -14 -24 -22 -38 -14 -24 -13 -24 3 -5 20 24 37 55
31 55 -3 0 -8 -6 -12 -12z"/>
<path d="M1310 1634 c0 -8 -2 -14 -4 -14 -2 0 -11 -3 -20 -6 -11 -4 -16 -1
-16 11 0 9 -4 14 -9 10 -10 -6 -11 -45 -1 -45 3 1 25 11 49 24 38 20 41 24 22
29 -14 3 -21 1 -21 -9z"/>
<path d="M586 1603 c33 -26 53 -31 34 -8 -20 24 -3 31 22 9 l23 -19 -18 21
c-13 16 -29 22 -54 21 l-35 -1 28 -23z"/>
<path d="M1080 1620 c0 -5 5 -10 10 -10 6 0 10 5 10 10 0 6 -4 10 -10 10 -5 0
-10 -4 -10 -10z"/>
<path d="M2520 1615 c0 -8 5 -15 10 -15 6 0 10 7 10 15 0 8 -4 15 -10 15 -5 0
-10 -7 -10 -15z"/>
<path d="M1003 1604 c-18 -19 -16 -23 7 -17 20 5 26 18 13 26 -5 3 -14 -1 -20
-9z"/>
<path d="M540 1597 c0 -17 38 -53 46 -44 7 6 -27 56 -38 57 -5 0 -8 -6 -8 -13z"/>
<path d="M950 1590 c0 -5 5 -10 10 -10 6 0 10 5 10 10 0 6 -4 10 -10 10 -5 0
-10 -4 -10 -10z"/>
<path d="M1350 1582 c0 -13 61 -55 68 -47 4 4 -6 18 -23 31 -31 25 -45 30 -45
16z"/>
<path d="M960 1553 c-1 -13 -3 -29 -4 -35 -2 -16 -25 -11 -49 9 -9 9 -19 14
-22 11 -3 -2 15 -24 41 -47 25 -24 47 -41 49 -39 3 2 1 31 -4 64 -5 32 -10 49
-11 37z"/>
<path d="M2492 1519 c-7 -29 -11 -53 -9 -55 8 -8 76 10 81 21 4 12 -42 84 -55
85 -3 0 -11 -23 -17 -51z m52 -4 c16 -24 15 -25 -9 -31 -33 -8 -38 -3 -29 30
8 33 17 33 38 1z"/>
<path d="M716 1481 c-3 -4 2 -15 12 -23 31 -27 42 -30 42 -13 0 9 -4 14 -9 11
-5 -3 -15 2 -22 11 -12 15 -12 16 4 10 9 -3 17 -2 17 3 0 12 -37 13 -44 1z"/>
<path d="M861 1470 c-24 -11 -41 -23 -38 -27 8 -8 87 27 87 39 0 10 2 11 -49
-12z"/>
<path d="M1150 1437 c0 -19 16 -31 24 -18 3 5 -1 14 -9 21 -12 10 -15 10 -15
-3z"/>
<path d="M2546 1439 c-13 -43 -23 -98 -16 -94 10 6 32 96 26 103 -3 3 -7 -1
-10 -9z"/>
<path d="M2477 1423 c-11 -10 -8 -20 7 -26 10 -4 14 0 13 14 -1 20 -9 24 -20
12z"/>
<path d="M2563 1378 c-4 -7 -9 -71 -11 -143 -5 -175 -10 -197 -47 -207 -29 -7
-31 -12 -66 -147 -22 -85 -33 -145 -27 -153 6 -10 10 -10 19 2 8 12 9 8 5 -16
-3 -17 0 -36 5 -41 8 -8 7 -17 0 -31 -15 -29 -14 -37 4 -22 11 9 15 32 15 79
0 54 4 70 20 84 11 9 27 17 35 17 9 0 39 14 69 30 51 29 54 32 61 83 4 28 9
95 11 147 2 52 9 117 15 143 10 42 9 50 -6 67 -10 11 -25 20 -34 20 -10 0 -7
-5 9 -13 35 -17 39 -54 7 -62 -14 -4 -38 -5 -53 -3 -29 3 -29 4 -27 67 1 35 4
74 7 87 7 26 2 31 -11 12z m66 -204 c3 -2 4 -21 3 -42 -1 -20 -3 -56 -5 -79
-2 -49 -11 -60 -32 -43 -13 10 -15 9 -15 -9 0 -18 3 -19 26 -11 l26 10 -8 -42
c-4 -24 -7 -49 -7 -56 0 -24 -135 -110 -150 -96 -3 3 -1 19 3 35 5 16 5 31 1
33 -4 3 -6 18 -3 34 3 24 12 32 53 46 l49 18 0 47 c0 25 3 57 5 71 5 22 4 22
-4 5 -9 -19 -10 -19 -10 3 -1 12 3 22 8 22 6 0 7 16 4 35 -5 33 -5 34 23 29
16 -3 31 -7 33 -10z m-89 -183 c-14 -27 -60 -29 -53 -3 5 19 55 44 61 31 2 -5
-2 -17 -8 -28z m-86 -226 c-4 -8 -7 -15 -9 -15 -2 0 -5 7 -9 15 -3 9 0 15 9
15 9 0 12 -6 9 -15z"/>
<path d="M2490 840 c-13 -8 -13 -10 2 -10 9 0 20 5 23 10 8 13 -5 13 -25 0z"/>
<path d="M1090 1370 c0 -5 5 -10 10 -10 6 0 10 5 10 10 0 6 -4 10 -10 10 -5 0
-10 -4 -10 -10z"/>
<path d="M1098 1293 c-10 -2 -18 -8 -18 -13 0 -4 8 -7 18 -5 9 2 20 4 25 4 4
1 7 6 7 11 0 10 -3 11 -32 3z"/>
<path d="M2495 1290 c-19 -8 -19 -9 3 -9 12 -1 22 4 22 9 0 6 -1 10 -2 9 -2 0
-12 -4 -23 -9z"/>
<path d="M2588 1293 c7 -3 16 -2 19 1 4 3 -2 6 -13 5 -11 0 -14 -3 -6 -6z"/>
<path d="M757 1273 c-4 -3 -7 -14 -7 -24 0 -9 -6 -20 -12 -22 -9 -4 -4 -14 15
-31 34 -31 41 -32 67 -6 27 27 25 45 -9 69 -31 22 -43 25 -54 14z m60 -53 c1
-14 0 -19 -3 -12 -9 20 -27 14 -21 -8 4 -17 2 -18 -14 -9 -18 9 -26 39 -14 51
3 3 16 5 28 4 16 -1 23 -8 24 -26z"/>
<path d="M641 1231 c-13 -15 -37 -36 -54 -46 l-30 -18 24 -18 c23 -17 39 -17
39 1 0 5 -7 7 -15 4 -11 -5 -13 -2 -9 10 3 9 12 16 19 16 13 0 36 30 48 63 9
23 6 22 -22 -12z"/>
<path d="M2497 1236 c-4 -10 -7 -25 -6 -34 0 -11 4 -9 10 7 5 13 8 29 6 35 -2
5 -6 2 -10 -8z"/>
<path d="M2461 1214 c-6 -14 -8 -31 -4 -37 4 -7 10 3 14 23 9 43 6 48 -10 14z"/>
<path d="M2420 1220 c0 -5 5 -10 11 -10 5 0 7 5 4 10 -3 6 -8 10 -11 10 -2 0
-4 -4 -4 -10z"/>
<path d="M649 1179 c-8 -17 -8 -20 2 -17 7 2 13 12 15 21 3 23 -3 21 -17 -4z"/>
<path d="M835 1169 c-22 -10 -33 -19 -24 -19 25 0 79 21 79 31 0 12 -8 10 -55
-12z"/>
<path d="M2312 1178 c-6 -7 -13 -27 -17 -43 -13 -56 -13 -57 -42 -27 -16 15
-25 23 -20 18 4 -6 7 -18 7 -27 0 -9 7 -22 15 -29 31 -26 13 -45 -52 -55 -13
-2 -23 -3 -23 -2 0 1 6 25 13 52 13 50 12 85 -2 85 -10 0 -51 -172 -44 -184 3
-5 11 -2 17 6 6 8 30 18 54 22 l43 6 -7 -35 c-3 -19 -2 -35 3 -35 8 0 75 251
68 258 -1 1 -7 -3 -13 -10z"/>
<path d="M2476 1165 c-3 -8 -1 -15 4 -15 6 0 10 7 10 15 0 8 -2 15 -4 15 -2 0
-6 -7 -10 -15z"/>
<path d="M2420 1136 c0 -29 -4 -39 -20 -43 -11 -3 -20 -9 -20 -13 0 -13 44 1
58 18 7 10 12 11 12 4 0 -7 5 -12 10 -12 16 0 12 14 -15 50 l-25 34 0 -38z"/>
<path d="M736 1115 l-37 -45 -35 15 c-45 19 -44 2 2 -20 41 -19 45 -17 93 50
42 58 25 59 -23 0z"/>
<path d="M2422 1025 c4 -38 -8 -49 -15 -12 -4 21 -4 21 -6 1 0 -12 6 -27 14
-34 12 -10 15 -7 21 17 3 15 8 36 11 46 3 11 -1 17 -12 17 -14 0 -16 -7 -13
-35z"/>
<path d="M354 1015 c-9 -22 1 -29 15 -11 8 10 9 16 1 21 -5 3 -13 -1 -16 -10z"/>
<path d="M2131 888 c-6 -35 -13 -72 -15 -83 -3 -11 -9 -33 -15 -48 -16 -42 10
-90 44 -81 15 4 32 1 40 -6 22 -18 18 -33 -4 -20 -13 7 -22 7 -26 0 -3 -5 5
-15 19 -21 14 -7 32 -27 41 -45 9 -19 20 -34 25 -34 5 0 2 12 -6 28 -17 32
-19 83 -3 79 6 -1 13 3 16 9 2 7 -7 10 -27 8 -28 -3 -31 -1 -28 19 2 17 -8 33
-35 57 -21 18 -35 35 -32 38 3 3 15 -4 28 -15 12 -11 29 -23 37 -25 17 -6 90
28 90 41 0 5 3 17 7 27 5 14 2 16 -21 10 -25 -6 -26 -5 -20 21 4 16 7 30 8 34
2 11 -73 69 -91 69 -16 0 -22 -12 -32 -62z m74 6 c31 -40 27 -49 -29 -60 l-38
-7 7 44 c12 72 20 75 60 23z m0 -94 c7 0 15 6 17 12 3 8 9 5 16 -9 10 -19 9
-22 -17 -31 -22 -8 -34 -7 -50 4 -12 9 -21 19 -21 24 0 11 34 18 38 8 2 -4 10
-8 17 -8z m-35 -81 c0 -6 -7 -8 -16 -5 -9 3 -20 6 -25 6 -4 0 -6 7 -3 15 5 11
11 12 25 4 10 -5 19 -15 19 -20z m-20 -18 c0 -5 -7 -11 -15 -15 -15 -5 -20 5
-8 17 9 10 23 9 23 -2z"/>
<path d="M162 817 c-29 -54 -30 -58 -8 -32 14 17 25 25 26 18 0 -6 -17 -26
-37 -44 -21 -17 -31 -28 -23 -25 8 4 6 0 -4 -8 -11 -9 -16 -16 -11 -16 5 0 -1
-9 -13 -20 -26 -25 -28 -36 -5 -48 13 -8 24 -1 53 37 47 59 84 121 73 121 -4
0 -14 4 -22 9 -11 7 -10 14 8 40 15 21 18 31 9 31 -7 0 -28 -28 -46 -63z"/>
<path d="M217 850 c-17 -28 -17 -29 5 -41 13 -6 20 -8 16 -4 -4 4 1 20 12 35
18 25 18 29 4 34 -9 3 -17 6 -18 6 -1 0 -10 -13 -19 -30z"/>
<path d="M2384 868 c-5 -7 -8 -26 -9 -43 0 -23 -4 -30 -18 -29 -10 1 -16 -3
-12 -10 3 -6 8 -19 11 -28 9 -27 23 -22 19 7 -1 14 1 25 5 25 8 0 23 80 16 87
-2 2 -8 -2 -12 -9z"/>
<path d="M2345 820 c3 -5 10 -10 16 -10 5 0 9 5 9 10 0 6 -7 10 -16 10 -8 0
-12 -4 -9 -10z"/>
<path d="M2310 800 c0 -5 5 -10 10 -10 6 0 10 5 10 10 0 6 -4 10 -10 10 -5 0
-10 -4 -10 -10z"/>
<path d="M2558 795 c-4 -4 -4 -13 -1 -21 6 -17 -1 -18 -27 -2 -23 15 -39 3
-20 -15 10 -9 11 -9 6 1 -4 6 9 3 28 -9 20 -12 34 -25 31 -29 -3 -4 2 -13 10
-20 8 -7 15 -18 15 -24 0 -14 -108 -69 -120 -61 -5 3 -12 0 -15 -6 -4 -6 -50
-31 -102 -55 l-95 -44 -60 56 c-33 30 -71 62 -83 70 -13 9 -27 29 -30 46 -5
20 -10 26 -15 18 -5 -8 -11 -1 -18 19 -6 17 -15 31 -21 31 -5 0 0 -18 11 -41
10 -22 17 -48 13 -57 -8 -22 -23 -4 -38 49 -18 63 -41 59 -45 -8 -3 -43 -7
-53 -25 -59 -59 -18 -198 -89 -195 -100 4 -17 365 -344 379 -344 13 0 57 20
439 200 146 69 265 130 265 136 0 6 -62 61 -137 122 -84 69 -138 120 -140 133
-2 11 -6 18 -10 14z m102 -135 c35 -32 75 -64 105 -84 17 -12 29 -28 27 -35
-3 -10 2 -12 19 -8 22 5 22 5 6 -7 -23 -17 -320 -155 -347 -160 -6 -2 -91 -42
-215 -102 -49 -24 -97 -44 -106 -44 -22 0 -53 47 -36 53 6 3 -3 6 -21 6 -27 1
-55 22 -167 122 -74 66 -137 124 -140 130 -4 5 3 9 14 9 12 0 21 4 21 8 0 4
17 14 38 21 20 7 53 24 73 36 l37 24 5 -41 c3 -22 11 -46 17 -52 9 -8 11 -7
10 4 -4 28 0 40 14 40 18 0 27 -60 12 -80 -10 -13 -9 -13 7 -1 18 14 21 12 11
-13 -3 -9 -12 -16 -20 -16 -21 0 -17 -30 11 -86 39 -78 50 -89 96 -89 33 0 46
6 69 32 30 34 30 39 3 125 -8 27 -22 49 -32 53 -10 3 -31 19 -47 37 l-29 31
35 -24 c19 -13 57 -31 84 -40 46 -16 51 -16 92 3 24 10 49 16 54 13 6 -3 10 0
10 7 0 7 19 19 43 26 23 7 79 31 124 54 81 40 81 40 72 70 l-8 30 21 -18 c12
-11 29 -26 38 -34z m-634 -15 c8 -42 -7 -72 -17 -35 -11 38 -10 82 1 75 5 -3
12 -21 16 -40z m69 -16 c4 -6 -2 -13 -14 -16 -23 -6 -27 -18 -11 -28 14 -9 41
-75 34 -86 -3 -5 2 -6 11 -3 22 9 61 -20 72 -53 12 -38 10 -105 -3 -110 -13
-4 -37 44 -29 58 11 16 -22 10 -42 -8 -10 -10 -13 -14 -7 -10 12 8 64 -38 64
-55 0 -10 -52 -10 -65 0 -16 11 -40 53 -53 89 -9 27 -8 36 9 57 16 20 18 30
10 45 -6 11 -13 35 -15 53 -3 18 -7 40 -11 50 -4 11 0 18 12 21 30 8 32 7 38
-4z m53 -41 c14 -13 22 -16 18 -8 -6 13 -6 13 6 0 7 -9 26 -25 42 -38 21 -16
24 -22 12 -22 -28 0 -116 62 -116 82 0 14 13 9 38 -14z"/>
<path d="M2600 616 c0 -20 -39 -66 -74 -87 -29 -18 -30 -19 -7 -19 32 0 91 61
91 94 0 14 -2 26 -5 26 -3 0 -5 -6 -5 -14z"/>
<path d="M2410 469 c-77 -13 -86 -20 -18 -15 31 3 65 9 75 15 21 12 18 12 -57
0z"/>
<path d="M2445 390 c-3 -6 1 -7 9 -4 18 7 21 14 7 14 -6 0 -13 -4 -16 -10z"/>
<path d="M2130 240 c0 -5 7 -10 15 -10 8 0 15 5 15 10 0 6 -7 10 -15 10 -8 0
-15 -4 -15 -10z"/>
<path d="M2070 545 c0 -5 5 -17 10 -25 5 -8 10 -10 10 -5 0 6 -5 17 -10 25 -5
8 -10 11 -10 5z"/>
<path d="M2105 463 c4 -16 0 -25 -15 -33 -11 -6 -20 -15 -20 -21 0 -6 12 -1
27 11 18 14 35 19 51 15 15 -4 21 -2 17 5 -3 5 -15 10 -25 10 -10 0 -24 8 -30
18 -10 15 -10 14 -5 -5z"/>
<path d="M2105 340 c3 -5 10 -10 16 -10 5 0 9 5 9 10 0 6 -7 10 -16 10 -8 0
-12 -4 -9 -10z"/>
<path d="M2287 773 c-4 -6 -4 -18 -1 -26 3 -8 1 -18 -5 -22 -6 -3 -11 1 -11 9
0 9 -4 16 -10 16 -15 0 -12 -27 3 -33 23 -9 39 9 35 39 -2 17 -6 24 -11 17z"/>
<path d="M254 738 c4 -19 23 -20 30 -2 5 14 4 15 -8 5 -10 -8 -16 -9 -19 -1
-3 6 -4 5 -3 -2z"/>
<path d="M2473 721 c4 -18 7 -43 7 -55 0 -12 3 -16 8 -10 4 6 22 19 40 28 37
19 39 27 14 49 -11 11 -22 13 -32 7 -9 -6 -20 -4 -29 3 -12 10 -13 7 -8 -22z
m72 -1 c9 -14 -37 -31 -50 -19 -6 7 -5 13 5 19 20 13 37 12 45 0z"/>
<path d="M295 729 c-4 -6 -5 -12 -2 -15 2 -3 7 2 10 11 7 17 1 20 -8 4z"/>
<path d="M2213 710 c-2 -23 15 -36 28 -23 6 6 3 16 -9 26 -17 15 -18 15 -19
-3z"/>
<path d="M2325 720 c-7 -12 2 -12 30 0 19 8 19 9 -2 9 -12 1 -25 -3 -28 -9z"/>
<path d="M230 709 c0 -5 5 -7 10 -4 6 3 10 8 10 11 0 2 -4 4 -10 4 -5 0 -10
-5 -10 -11z"/>
<path d="M2382 694 c-23 -26 -8 -34 17 -9 14 16 18 25 10 25 -8 -1 -20 -7 -27
-16z"/>
<path d="M186 685 c-3 -9 0 -15 9 -15 9 0 12 6 9 15 -4 8 -7 15 -9 15 -2 0 -5
-7 -9 -15z"/>
<path d="M2310 690 c-8 -5 -23 -7 -32 -4 -28 9 -22 -31 7 -50 14 -9 25 -14 25
-10 0 3 11 -1 25 -10 30 -20 35 -20 35 -1 0 9 6 12 15 9 8 -4 15 -1 15 7 0 7
3 9 7 6 7 -7 33 11 33 23 0 4 -7 11 -16 14 -8 3 -12 2 -9 -3 8 -14 -15 -25
-57 -28 -44 -3 -60 14 -23 23 20 5 23 9 14 20 -13 16 -19 17 -39 4z m-6 -46
c5 -14 4 -15 -9 -4 -17 14 -19 20 -6 20 5 0 12 -7 15 -16z"/>
<path d="M240 669 c0 -5 5 -7 10 -4 6 3 10 8 10 11 0 2 -4 4 -10 4 -5 0 -10
-5 -10 -11z"/>
<path d="M142 641 c-11 -6 -10 -11 3 -25 20 -20 32 -21 15 -1 -6 8 -9 19 -5
25 7 12 4 12 -13 1z"/>
<path d="M180 631 c0 -5 5 -13 10 -16 6 -3 10 -2 10 4 0 5 -4 13 -10 16 -5 3
-10 2 -10 -4z"/>
<path d="M2245 630 c-4 -6 -2 -16 3 -23 5 -7 13 -27 17 -45 7 -33 7 -34 22
-12 12 17 17 19 24 9 6 -10 9 -3 9 19 0 37 -5 39 -33 15 -17 -15 -19 -15 -15
-3 7 20 -17 56 -27 40z"/>
</g>
</svg>
