<svg id="Layer_1" data-name="Layer 1" xmlns="http://www.w3.org/2000/svg" viewBox="0 0 857.42 676.29"><defs><style>.cls-1,.cls-2,.cls-3,.cls-4{fill:none;stroke:#f8fff0;}.cls-1,.cls-3{stroke-linejoin:round;}.cls-1,.cls-2,.cls-3{stroke-width:3px;}.cls-2,.cls-4{stroke-miterlimit:10;}.cls-3{stroke-linecap:round;}.cls-4{stroke-width:2px;}.cls-5{fill:#5ea87c;}</style></defs><path class="cls-1" d="M717.5,689.5c1.59-5,6.21-18.83,7.86-23.78,1.95-6.38,3.75-12.82,5.27-19.32,1-4.35,1.91-8.74,2.64-13.15,4.32-26.18,10.91-51.82,16.58-77.69.39-1.78.73-3.58,1-5.39.68-4-.83-5.94-4.95-7A173.81,173.81,0,0,1,727,536.78c-15.1-5.85-30.44-10.83-46.48-13.33-9.49-1.47-17.53-4.64-19.72-15.35-2.39-11.69,2.7-20.33,11.32-27.52,1.2-1,3.79-1.1,3.39-3.08-.34-1.67-2.71-1.65-4.23-2.2-26.2-9.5-53.53-15.12-80.12-23.28a218.64,218.64,0,0,0-23.25-5.77,24.81,24.81,0,0,1-13.72-7.56c-5.17-5.44-11.9-5.83-18.48-2.88-26,11.68-52.25,22.69-77.29,36.35-5.4,2.95-11.18,5.19-16.67,8-5.28,2.68-6.29,5.19-5,11,.4,1.78.85,3.57,1.11,5.38.62,4.15-.95,7-4.94,8.71q-9.61,4.18-19,8.86c-7.41,3.67-7.77,9.42-1.26,14.74C417,532.4,421.44,536,425.47,540c5.22,5.13,4.66,11.77-1.1,18.18-5.95,6.63-11.74,7.5-17.89,2.66-1.18-.92-2.23-2-3.34-3C396.88,552.1,391,546,381.45,546c-4.2,0-8-2.4-10.75-5.74s-6-3.8-9.77-1.88-7.74,3.87-11.67,5.68c-5.49,2.52-11.15,4.52-17.34,3.95-4.72-.43-8.25,1.46-11.46,4.84-5.08,5.35-9.08,11.5-13.57,17.28-6.8,8.75-9.59,9.45-19.45,4.55-2.39-1.19-4.73-2.46-7.07-3.75-3.09-1.71-6.13-2.71-9.21,0a2.54,2.54,0,0,1-1.79.76c-6.66-1.38-7.36,4-8.93,8a152.91,152.91,0,0,1-15.87,31.1c-17.38,25.38-32.93,52.1-53.51,75.15-11.41,12.79-23.78,24.73-35.67,37.1-3.57,3.72-7,7.62-10.42,11.45-1.8,2-3.72,2.6-6.15.95-7.86-5.32-15.77-10.56-23.64-15.87-3-2-4.29-4.63-2.22-8.09,1.71-2.86.23-4.54-2-6.23-6.67-5-7.27-6.92-3-14.15q10.35-17.69,21.37-35a175.82,175.82,0,0,0,11-19.58c7.74-16.52,20.77-29.24,31.4-43.68,6.9-9.38,14.21-18.49,21.71-27.4,5.56-6.61,11.58-12.86,17.66-19,2.88-2.9,2.63-5-.34-7.35-1.7-1.34-3.41-2.67-5.05-4.08-1.42-1.22-2.77-2.59-1.77-4.71.9-1.89,2.09-3.34,4.58-3.06,4.78.53,6.8-4.49,10.85-5.62a2.15,2.15,0,0,0,.76-3.06c-1.08-1.52-2.34-.85-3.37.16-1.49,1.46-2.72,1.48-4.2-.13-4.29-4.66-8.73-9.16-13-13.81-1.22-1.32-2.7-2.88-1.86-4.84s3-1.84,4.8-1.46c2.74.58,4.45-.86,5.93-2.8,6-7.8,12-15.41,19.67-21.81,3.63-3.05,5.34-8.33,8.1-12.48,6.41-9.59,14.61-17.7,22.27-26.23,3.28-3.65,3.26-6.15-.53-8.93-.94-.69-1.79-1.49-2.7-2.22a12.87,12.87,0,0,1-4.95-12.06c.7-4.14,4-9.29,8.53-9.79a10.84,10.84,0,0,1,4.78.67,11.51,11.51,0,0,1,4.77,3.78c1.46,1.71,2.9,3.45,4.43,5.11a36.85,36.85,0,0,0,3.39,3.1,9.73,9.73,0,0,0,3.81,2.31c1.7.41,3.62,0,5.32-.25a46.52,46.52,0,0,0,9.31-2.27c3-1.06,5.9-2.43,8.88-3.57.58-.22,1.15-.44,1.72-.68q9.41-3.78,18.69-7.85c6.19-2.69,12.36-5.44,18.52-8.2,5.06-2.27,10.11-4.55,15.17-6.8,5.3-2.37,10-.5,13.19,2.87,6.27,6.57,12,6,19.81,2.51,21.8-9.58,44.15-17.89,66.1-27.14,17.18-7.24,34.15-15,51.1-22.81,6.12-2.81,12.83-3,19-5.7,41.91-18,83.79-36.12,125.39-54.86,35.23-15.87,70.8-31,106-46.88,26.57-12,53.55-23,79.83-35.66,6.59-3.17,13.46-5.79,20.32-8.35,10-3.74,17.92,2,17.61,12.58a57.22,57.22,0,0,1-1.27,8.88,8.6,8.6,0,0,1-1.49,3.55,3.15,3.15,0,0,1-2.07,1.31c-.64.07-1.28-.27-1.85-.19.64,3.28,5.41,4.49,7.57,6.5,3.52,3.27,3.51,4.52-.88,6.1-16.16,5.86-31.35,13.89-47.07,20.74-16.17,7-31.87,15.22-48.1,22.13-22.07,9.38-44,19.11-65.82,29q-72.84,32.92-145.56,66.13c-16.21,7.41-32.18,15.32-48.24,23-1,.46-2.36.4-2.89,2.65l23.48-10.44c27.08-12.07,54.18-24.08,81.22-36.23,32.36-14.54,64.65-29.26,97-43.82,28.7-12.92,57.47-25.71,86.19-38.6,16.79-7.43,33.51-15,50.26-22.58l23-10.32c4-1.79,8-3.68,12-5.39,2-.86,4.05-1.67,6.12-2.41,2.39-.85,5.63-2.74,8.14-1.32,1.45.82,2.31,2.49,3.81,3.22a5.94,5.94,0,0,0,3.93.18c3-.7,6.82-2.11,9.2.82,3.58,4.41,6.37,9.25,4.49,15.12-3.65,11.45-6,23.23-8.94,34.84-6.21,24.2-12.12,48.47-18.36,72.66-7.41,28.71-14.81,57.42-22.64,86-4.87,17.8-6.54,36-8.28,54.21-1,10.59,1.53,21.16-.73,31.7-.94,4.4,1.35,6.69,5.9,7.38,7.7,1.16,15.18,1.85,22.28-2.51,3.64-2.23,4,.57,3.73,3.12-.79,8.89-1.93,17.68-2.51,26.57q-.9,13.77-1.52,27.57c-.4,8.81-.75,17.49-1.64,26.25-.64,6.31-1.51,12.6-2.71,18.82a43.79,43.79,0,0,1-2.13,8c-1.33,3.31-4.53,4.68-7.56,6.06-3.86,1.75-7.71,3.55-11.4,5.64a3.82,3.82,0,0,0-2.59,4.93c.89,5,1,10.61,3.94,15,2.35,3.52,5.78,6.15,9.05,8.77,22.33,17.94,44.53,36,66.78,54.08l.76.65c8.1,7,7.61,9.27-2,14.17-34.45,17.54-69.67,33.46-104.6,50-32.82,15.53-65.78,30.78-98.59,46.34-5.33,2.53-9.14,1.1-13-2.66-12.21-12.06-25.07-23.42-37.84-34.88-22.67-20.36-45.21-40.88-67.8-61.34-7-6.33-6.6-9.81,2-14,12-5.8,24.14-11.53,36.43-16.8,6-2.55,12-4.8,17.91-7.54l3-1.48L716.5,690.5" transform="translate(-103.72 -188.98)"/><path class="cls-2" d="M805.91,317.8c.13-1.67-1.13-3.05-3.94-2.47a29,29,0,0,0-6.2,1.86Q755,335.68,714.39,354.32q-35,16-69.94,32.1c-12.25,5.66-24.44,11.44-36.63,17.23-1.62.77-3.73,1.69-3.65,3.71.08,2.24,2.59,2.18,4.18,2.91a13.19,13.19,0,0,0,1.42.49c39.71,13.73,80.74,23,120.72,35.83,5.87,1.88,12,3.65,18.14,2.91A63.53,63.53,0,0,1,769,450.71c6.15,1.22,6.61,1,8.13-5.33,4.12-17.17,8.09-34.37,12.19-51.55,3.47-14.53,10.08-28.17,11.46-43.34C801.7,339.9,804,329.44,805.91,317.8Z" transform="translate(-103.72 -188.98)"/><path class="cls-2" d="M316.26,488.4c3.68.78,8.5,1.14,11.24-1.9.6-.66,11.21-6.17,12.14-6.39,13.19-3.2,28.82-11.19,41.25-16.24,2.87-1.17,2.66-3.06.47-4.91-3.3-2.78-6.63-5.52-9.92-8.32-2.72-2.32-5.54-2.47-8.77-.95-6.31,3-12.67,5.85-19.12,8.51-5.92,2.44-25.63,10.82-27.85,17.21-.85,2.45-2.79,4.49-4.09,6.8-.91,1.64-3.4,3-2.15,5.11,1,1.59,3.27,1.22,5.11,1.09C315.06,488.37,315.56,488.4,316.26,488.4Z" transform="translate(-103.72 -188.98)"/><path class="cls-2" d="M218.3,514.69c2.41.13,3.51-1.11,4.51-2.48,2.26-3.08,4.41-6.26,6.79-9.24q19.72-24.75,38.3-50.38c2.16-3,1.74-5.07-1-7.17-2.94-2.26-4.42-.32-6,1.85-8.35,11.39-16.75,22.73-25.1,34.12-1.5,2-2.92,3.67-5.68,1.81-2.23-1.51-3.69-.15-5,1.62-4.29,5.92-8.63,11.8-12.87,17.75-1.22,1.71-3.21,3.71-1.56,5.8A20.56,20.56,0,0,0,218.3,514.69Z" transform="translate(-103.72 -188.98)"/><path class="cls-2" d="M705,338.48c-.18-3.07-.23-6.07-.56-9-.16-1.43-.45-3.18-2.18-3.62s-2.64,1.08-3.58,2.21a130.55,130.55,0,0,0-13.36,19.23c-2.55,4.5-3.18,9.92-8.72,12.66-2.19,1.08-1.14,3.64,1.67,3.89a8,8,0,0,0,3.86-.75c6.65-3,13.25-6.18,19.87-9.3a3.87,3.87,0,0,0,2.39-3.93C704.43,346,704.81,342.21,705,338.48Z" transform="translate(-103.72 -188.98)"/><path class="cls-2" d="M602.45,339.82c-1.12-6.15,1.18-12.41.39-18.72-.22-1.74-.2-4.06-2.46-4.41-2-.31-2.48,1.86-3.36,3.21-7.13,11-12.8,23-21.38,33-.88,1-1.84,2.19-.91,3.56s2.33.65,3.55.12c6.12-2.65,12.21-5.35,18.36-7.91C600.58,347.05,604.2,345.36,602.45,339.82Z" transform="translate(-103.72 -188.98)"/><path class="cls-2" d="M226.82,613.21c-1.54,2.18-3,4.28-4.52,6.41-1.11,1.59-2.47,2.27-4.22,1.07-3.25-2.22-5.09-.39-7,2.11Q199.9,637.49,188.54,652c-1.86,2.4-3.5,4.59,0,7,3.12,2.17,5.75,3.09,8.42-.69,9.79-13.86,19.7-27.64,29.55-41.47C227.3,615.86,228.27,614.76,226.82,613.21Z" transform="translate(-103.72 -188.98)"/><path class="cls-2" d="M646,368.74c-.37-4.47-.63-8.95-1.14-13.41-.32-2.73-2.26-3.83-4-1.47-4.84,6.72-11.17,12.91-13.16,20.95-1.28,5.2-3.37,8.16-7.76,10.34-1.63.8-3.4,2.17-2.22,4.31s3.19,1.39,4.88.61c6.79-3.14,13.56-6.35,20.32-9.57,1.21-.57,2.37-1.26,2.48-2.84Q645.72,373.21,646,368.74Z" transform="translate(-103.72 -188.98)"/><path class="cls-2" d="M762.71,317c-.35-2.85-.52-6-1.18-9.1-.59-2.75-2.71-5.22-5.27-2.85-6.22,5.78-11.86,12.38-14.43,20.57a10.23,10.23,0,0,1-4.75,6.29c-1.56,1-3.53,2-2.54,4.2,1.16,2.57,3.44,1.55,5.2.78,4.72-2.08,9.14-5.17,14-6.38C761.26,328.64,762.09,323.22,762.71,317Z" transform="translate(-103.72 -188.98)"/><path class="cls-2" d="M741.68,645.84c5.71-1.38,12.49-1.53,18.55-4.58,1.88-.94,4.51-2.18,2.48-4.8-4.66-6.05-9.55-11.93-14.59-17.67-2.08-2.38-4.23-1.82-5.06,1.37-1.9,7.23-3.68,14.49-5.48,21.74C736.89,644.7,738.05,646,741.68,645.84Z" transform="translate(-103.72 -188.98)"/><path class="cls-2" d="M797.37,414.7c4.73-.93,10.24-2.7,15.81-2.93,5.86-.25,4.35-3.06,2.9-5.94-3.24-6.43-8.12-11.75-12.4-17.46-2.16-2.88-4.18-1.48-4.95,1.35-1.91,7.06-3.62,14.17-5.31,21.29C792.85,413.43,793.8,414.91,797.37,414.7Z" transform="translate(-103.72 -188.98)"/><path class="cls-2" d="M807.57,454.3c-.81-4.28.65-6.95,1.33-9.81,1.24-5.18,2.57-10.33,3.74-15.53.65-2.89,0-5.25-3.64-4.75a127.84,127.84,0,0,0-14.72,2.67c-5.21,1.37-6,4.2-2.69,8.26C796.52,441.15,801.54,447.08,807.57,454.3Z" transform="translate(-103.72 -188.98)"/><path class="cls-2" d="M831.08,351.79c-2.57-8.2-6.9-15.25-11.87-21.93-2.51-3.36-3.94-3.21-5.47.54-2.66,6.51-4,13.4-5.44,20.23-.79,3.73.68,5.18,4.71,4.38C819,353.81,824.87,352,831.08,351.79Z" transform="translate(-103.72 -188.98)"/><path class="cls-2" d="M753.23,590.4c7.69-1.1,13.94-3.41,20.16-5.72,3.2-1.19,2.51-3.7.77-5.62a154.88,154.88,0,0,0-11.49-11.71c-3.49-3.11-4.82-2.55-6.22,1.83-1.92,6-2.42,12.37-4.79,18.28C750.79,589.63,752.21,590.47,753.23,590.4Z" transform="translate(-103.72 -188.98)"/><path class="cls-2" d="M822.3,365.44c-4,.6-9.11,1.17-14.16,2.2-4.18.85-5.11,3.4-2.57,7,3.37,4.75,7,9.32,10.62,13.89,2,2.53,3.61,2.41,5.09-.72,2.9-6.13,3.68-12.79,5.22-19.26C827.08,366.09,825.77,365.15,822.3,365.44Z" transform="translate(-103.72 -188.98)"/><path class="cls-2" d="M193.89,585c-2-.14-2.41,1.56-3.24,2.64q-12.17,15.81-24.25,31.67c-1.5,2-4.23,3.89-.41,6.44,3,2,5.34,3.77,8.12-.47,5.11-7.78,10.57-15.33,15.95-22.93,1.39-2,1.9-3.9.45-6-1.88-2.7-1-5,.83-7.25C192.31,587.89,193.8,586.91,193.89,585Z" transform="translate(-103.72 -188.98)"/><path class="cls-2" d="M682.2,332.35l-.93-1c-6,2.28-12.11,4.47-18.09,6.86-2.31.92-4.75,2.14-5,5a66.1,66.1,0,0,0,1.64,21.21C669.17,354.39,675.31,343.11,682.2,332.35Z" transform="translate(-103.72 -188.98)"/><path class="cls-2" d="M745.2,305.35l-.93-1c-6,2.28-12.11,4.47-18.09,6.86-2.31.92-4.75,2.14-5,5a66.1,66.1,0,0,0,1.64,21.21C732.17,327.39,738.31,316.11,745.2,305.35Z" transform="translate(-103.72 -188.98)"/><path class="cls-2" d="M631.2,354.35l-.93-1c-6,2.28-12.11,4.47-18.09,6.86-2.31.92-4.75,2.14-5,5a66.1,66.1,0,0,0,1.64,21.21C618.17,376.39,624.31,365.11,631.2,354.35Z" transform="translate(-103.72 -188.98)"/><path class="cls-2" d="M843.47,234.92a3.08,3.08,0,0,0-4.19-2.28c-7.8,2.32-15.39,5.17-22.07,10-1.4,1-2.62,2.39-1.48,4.2,1,1.54,2.68,1.2,4.06.59q10.71-4.68,21.34-9.52C842.33,237.35,843.54,236.66,843.47,234.92Z" transform="translate(-103.72 -188.98)"/><path class="cls-2" d="M844.34,289.68c-.6-1.56-1.81-2.72-3.71-1.82q-10.61,5-21.07,10.3c-1.15.59-2.31,1.75-1.72,3.25.71,1.79,2.4,1.65,3.85,1.06,6.94-2.79,13.95-5.45,20.3-9.51C843.1,292.25,844.3,291.54,844.34,289.68Z" transform="translate(-103.72 -188.98)"/><path class="cls-2" d="M878.34,273.68c-.6-1.56-1.81-2.72-3.71-1.82q-10.61,5-21.07,10.3c-1.15.59-2.31,1.75-1.72,3.25.71,1.79,2.4,1.65,3.85,1.06,6.94-2.79,13.95-5.45,20.3-9.51C877.1,276.25,878.3,275.54,878.34,273.68Z" transform="translate(-103.72 -188.98)"/><path class="cls-2" d="M783.21,472.79c4.73-.93,10.24-2.7,15.82-2.94,5.86-.24,4.34-3.05,2.89-5.94-3.24-6.42-8.12-11.75-12.4-17.45-2.15-2.88-4.18-1.48-4.95,1.35-1.9,7.06-3.62,14.17-5.31,21.28C778.69,471.52,779.65,473,783.21,472.79Z" transform="translate(-103.72 -188.98)"/><path class="cls-2" d="M793.41,512.39c-.81-4.28.65-6.95,1.33-9.81,1.24-5.18,2.58-10.34,3.74-15.53.65-2.89,0-5.26-3.64-4.75A128.06,128.06,0,0,0,780.13,485c-5.22,1.37-6,4.19-2.69,8.25C782.36,499.24,787.38,505.16,793.41,512.39Z" transform="translate(-103.72 -188.98)"/><path class="cls-2" d="M769.21,530.79c4.73-.93,10.24-2.7,15.82-2.94,5.86-.24,4.34-3.05,2.89-5.94-3.24-6.42-8.12-11.75-12.4-17.45-2.15-2.88-4.18-1.48-4.95,1.35-1.9,7.06-3.62,14.17-5.31,21.28C764.69,529.52,765.65,531,769.21,530.79Z" transform="translate(-103.72 -188.98)"/><path class="cls-2" d="M779.41,570.39c-.81-4.28.65-6.95,1.33-9.81,1.24-5.18,2.58-10.34,3.74-15.53.65-2.89,0-5.26-3.64-4.75A128.06,128.06,0,0,0,766.13,543c-5.22,1.37-6,4.19-2.69,8.25C768.36,557.24,773.38,563.16,779.41,570.39Z" transform="translate(-103.72 -188.98)"/><path class="cls-2" d="M590.17,318.74l-.93-1c-6,2.27-12.1,4.46-18.09,6.85-2.3.92-4.74,2.14-5,5a66.39,66.39,0,0,0,1.64,21.21C577.14,340.78,583.29,329.51,590.17,318.74Z" transform="translate(-103.72 -188.98)"/><path class="cls-2" d="M655.45,317.82c-1.12-6.15,1.18-12.41.39-18.72-.22-1.74-.2-4.06-2.46-4.41-2-.31-2.48,1.86-3.36,3.21-7.13,11-12.8,23-21.38,33-.88,1-1.84,2.19-.91,3.56s2.33.65,3.55.12c6.12-2.65,12.21-5.35,18.36-7.91C653.58,325.05,657.2,323.36,655.45,317.82Z" transform="translate(-103.72 -188.98)"/><path class="cls-2" d="M643.17,296.74l-.93-1c-6,2.27-12.1,4.46-18.09,6.85-2.3.92-4.74,2.14-5,5a66.39,66.39,0,0,0,1.64,21.21C630.14,318.78,636.29,307.51,643.17,296.74Z" transform="translate(-103.72 -188.98)"/><path class="cls-2" d="M705.45,294.82c-1.12-6.15,1.18-12.41.39-18.72-.22-1.74-.2-4.06-2.46-4.41-2-.31-2.48,1.86-3.36,3.21-7.13,11-12.8,23-21.38,33-.88,1-1.84,2.19-.91,3.56s2.33.65,3.55.12c6.12-2.65,12.21-5.35,18.36-7.91C703.58,302.05,707.2,300.36,705.45,294.82Z" transform="translate(-103.72 -188.98)"/><path class="cls-2" d="M693.17,273.74l-.93-1c-6,2.27-12.1,4.46-18.09,6.85-2.3.92-4.74,2.14-5,5a66.39,66.39,0,0,0,1.64,21.21C680.14,295.78,686.29,284.51,693.17,273.74Z" transform="translate(-103.72 -188.98)"/><path class="cls-2" d="M808.45,300.82c-1.12-6.15,1.18-12.41.39-18.72-.22-1.74-.2-4.06-2.46-4.41-2-.31-2.48,1.86-3.36,3.21-7.13,11-12.8,23-21.38,33-.88,1-1.84,2.19-.91,3.56s2.33.65,3.55.12c6.12-2.65,12.21-5.35,18.36-7.91C806.58,308.05,810.2,306.36,808.45,300.82Z" transform="translate(-103.72 -188.98)"/><path class="cls-2" d="M796.17,279.74l-.93-1c-6,2.27-12.1,4.46-18.09,6.85-2.3.92-4.74,2.14-5,5a66.39,66.39,0,0,0,1.64,21.21C783.14,301.78,789.29,290.51,796.17,279.74Z" transform="translate(-103.72 -188.98)"/><path class="cls-2" d="M756.45,270.82c-1.12-6.15,1.18-12.41.39-18.72-.22-1.74-.2-4.06-2.46-4.41-2-.31-2.48,1.86-3.36,3.21-7.13,11-12.8,23-21.38,33-.88,1-1.84,2.19-.91,3.56s2.33.65,3.55.12c6.12-2.65,12.21-5.35,18.36-7.91C754.58,278.05,758.2,276.36,756.45,270.82Z" transform="translate(-103.72 -188.98)"/><path class="cls-2" d="M744.17,249.74l-.93-1c-6,2.27-12.1,4.46-18.09,6.85-2.3.92-4.74,2.14-5,5a66.39,66.39,0,0,0,1.64,21.21C731.14,271.78,737.29,260.51,744.17,249.74Z" transform="translate(-103.72 -188.98)"/><path class="cls-2" d="M804.45,250.82c-1.12-6.15,1.18-12.41.39-18.72-.22-1.74-.2-4.06-2.46-4.41-2-.31-2.48,1.86-3.36,3.21-7.13,11-12.8,22.95-21.38,33-.88,1-1.84,2.19-.91,3.56s2.33.65,3.55.12c6.12-2.65,12.21-5.35,18.36-7.91C802.58,258.05,806.2,256.36,804.45,250.82Z" transform="translate(-103.72 -188.98)"/><path class="cls-2" d="M792.17,229.74l-.93-1c-6,2.27-12.1,4.46-18.09,6.85-2.3.92-4.74,2.14-5,5a66.39,66.39,0,0,0,1.64,21.21C779.14,251.78,785.29,240.51,792.17,229.74Z" transform="translate(-103.72 -188.98)"/><path class="cls-2" d="M767.36,598.06c-4.26.67-9.76,1.31-15.17,2.46-4.47,1-5.47,3.82-2.75,7.84,3.61,5.33,7.51,10.46,11.38,15.59,2.14,2.84,3.86,2.71,5.45-.81,3.1-6.87,3.94-14.35,5.59-21.61C772.48,598.79,771.08,597.73,767.36,598.06Z" transform="translate(-103.72 -188.98)"/><path class="cls-2" d="M798.68,648.84c5.71-1.38,12.49-1.53,18.55-4.58,1.88-.94,4.51-2.18,2.48-4.8-4.66-6.05-9.55-11.93-14.59-17.67-2.08-2.38-4.23-1.82-5.06,1.37-1.9,7.23-3.68,14.49-5.48,21.74C793.89,647.7,795.05,649,798.68,648.84Z" transform="translate(-103.72 -188.98)"/><path class="cls-2" d="M854.37,417.7c4.73-.93,10.24-2.7,15.81-2.93,5.86-.25,4.35-3.06,2.9-5.94-3.24-6.43-8.12-11.75-12.4-17.46-2.16-2.88-4.18-1.48-4.95,1.35-1.91,7.06-3.62,14.17-5.31,21.29C849.85,416.43,850.8,417.91,854.37,417.7Z" transform="translate(-103.72 -188.98)"/><path class="cls-2" d="M864.57,457.3c-.81-4.28.65-6.95,1.33-9.81,1.24-5.18,2.57-10.33,3.74-15.53.65-2.89,0-5.25-3.64-4.75a127.84,127.84,0,0,0-14.72,2.67c-5.21,1.37-6,4.2-2.69,8.26C853.52,444.15,858.54,450.08,864.57,457.3Z" transform="translate(-103.72 -188.98)"/><path class="cls-2" d="M888.08,354.79c-2.57-8.2-6.9-15.25-11.87-21.93-2.51-3.36-3.94-3.21-5.47.54-2.66,6.51-4,13.4-5.44,20.23-.79,3.73.68,5.18,4.71,4.38C876,356.81,881.87,355,888.08,354.79Z" transform="translate(-103.72 -188.98)"/><path class="cls-2" d="M810.23,593.4c7.69-1.1,13.94-3.41,20.16-5.72,3.2-1.19,2.51-3.7.77-5.62a154.88,154.88,0,0,0-11.49-11.71c-3.49-3.11-4.82-2.55-6.22,1.83-1.92,6-2.42,12.37-4.79,18.28C807.79,592.63,809.21,593.47,810.23,593.4Z" transform="translate(-103.72 -188.98)"/><path class="cls-2" d="M879.3,368.44c-4,.6-9.11,1.17-14.16,2.2-4.18.85-5.11,3.4-2.57,7,3.37,4.75,7,9.32,10.62,13.89,2,2.53,3.61,2.41,5.09-.72,2.9-6.13,3.68-12.79,5.22-19.26C884.08,369.09,882.77,368.15,879.3,368.44Z" transform="translate(-103.72 -188.98)"/><path class="cls-2" d="M903.08,298.79c-2.57-8.2-6.9-15.25-11.87-21.93-2.51-3.36-3.94-3.21-5.47.54-2.66,6.51-4,13.4-5.44,20.23-.79,3.73.68,5.18,4.71,4.38C891,300.81,896.87,299,903.08,298.79Z" transform="translate(-103.72 -188.98)"/><path class="cls-2" d="M894.3,312.44c-4,.6-9.11,1.17-14.16,2.2-4.18.85-5.11,3.4-2.57,7,3.37,4.75,7,9.32,10.62,13.89,2,2.53,3.61,2.41,5.09-.72,2.9-6.13,3.68-12.79,5.22-19.26C899.08,313.09,897.77,312.15,894.3,312.44Z" transform="translate(-103.72 -188.98)"/><path class="cls-2" d="M840.21,475.79c4.73-.93,10.24-2.7,15.82-2.94,5.86-.24,4.34-3.05,2.89-5.94-3.24-6.42-8.12-11.75-12.4-17.45-2.15-2.88-4.18-1.48-4.95,1.35-1.9,7.06-3.62,14.17-5.31,21.28C835.69,474.52,836.65,476,840.21,475.79Z" transform="translate(-103.72 -188.98)"/><path class="cls-2" d="M850.41,515.39c-.81-4.28.65-6.95,1.33-9.81,1.24-5.18,2.58-10.34,3.74-15.53.65-2.89,0-5.26-3.64-4.75A128.06,128.06,0,0,0,837.13,488c-5.22,1.37-6,4.19-2.69,8.25C839.36,502.24,844.38,508.16,850.41,515.39Z" transform="translate(-103.72 -188.98)"/><path class="cls-2" d="M826.21,533.79c4.73-.93,10.24-2.7,15.82-2.94,5.86-.24,4.34-3.05,2.89-5.94-3.24-6.42-8.12-11.75-12.4-17.45-2.15-2.88-4.18-1.48-4.95,1.35-1.9,7.06-3.62,14.17-5.31,21.28C821.69,532.52,822.65,534,826.21,533.79Z" transform="translate(-103.72 -188.98)"/><path class="cls-2" d="M836.41,573.39c-.81-4.28.65-6.95,1.33-9.81,1.24-5.18,2.58-10.34,3.74-15.53.65-2.89,0-5.26-3.64-4.75A128.06,128.06,0,0,0,823.13,546c-5.22,1.37-6,4.19-2.69,8.25C825.36,560.24,830.38,566.16,836.41,573.39Z" transform="translate(-103.72 -188.98)"/><path class="cls-2" d="M824.36,601.06c-4.26.67-9.76,1.31-15.17,2.46-4.47,1-5.47,3.82-2.75,7.84,3.61,5.33,7.51,10.46,11.38,15.59,2.14,2.84,3.86,2.71,5.45-.81,3.1-6.87,3.94-14.35,5.59-21.61C829.48,601.79,828.08,600.73,824.36,601.06Z" transform="translate(-103.72 -188.98)"/><polyline class="cls-2" points="770.78 98.52 680.78 471.52 727.78 459.52 758.78 323.52"/><path class="cls-1" d="M791.5,753.5" transform="translate(-103.72 -188.98)"/><polyline class="cls-1" points="602.78 546.52 626.62 473.05 661.78 496.52 737.78 465.52 752.78 494.52"/><line class="cls-2" x1="735.99" y1="457.37" x2="776.78" y2="487.52"/><polyline class="cls-1" points="662.78 498.52 638.78 575.52 762.78 517.52 752.78 494.52"/><path class="cls-1" d="M706.5,734.5c1,0,36,30,36,30" transform="translate(-103.72 -188.98)"/><path class="cls-2" d="M112.23,713.19,157.5,644.5l14.83-16.62L199.5,590.5l12-2,20.66-28.75a4.51,4.51,0,0,1,5.84-1.31l25.88,14.34" transform="translate(-103.72 -188.98)"/><path class="cls-2" d="M521.5,392.5,420.29,436.33a4,4,0,0,0-1.39,6.18l5,5.9a3,3,0,0,1-1.11,4.69l-95.46,41.16A33.19,33.19,0,0,0,312,507.68L275.2,569.29" transform="translate(-103.72 -188.98)"/><path class="cls-3" d="M378.28,545.57c-2.59-16.8,18.44-32.76,31.22-28.07l-42-35c-19.41,3.32-29.86,17.3-30,32l29.39,23" transform="translate(-103.72 -188.98)"/><ellipse class="cls-3" cx="311.28" cy="360.52" rx="7.5" ry="8"/><line class="cls-2" x1="286.78" y1="278.52" x2="278.78" y2="271.52"/><rect class="cls-4" x="210.99" y="498.94" width="82.54" height="3.6" rx="1.24" transform="translate(-406.66 233.48) rotate(-55.24)"/><rect class="cls-4" x="221.39" y="506.41" width="82.54" height="3.6" rx="1.24" transform="translate(-408.33 245.23) rotate(-55.24)"/><rect class="cls-4" x="231.78" y="513.89" width="82.54" height="3.6" rx="1.24" transform="translate(-410.01 256.99) rotate(-55.24)"/><rect class="cls-4" x="242.18" y="521.37" width="82.54" height="3.6" rx="1.24" transform="translate(-411.68 268.74) rotate(-55.24)"/><path class="cls-2" d="M673.25,475.81,747.5,494.5c10.43-12.41,13.33-25.8,10-40l-22.8-6.63" transform="translate(-103.72 -188.98)"/><path class="cls-2" d="M615.77,399.88c-1.27.62-87.66,39.34-87.66,39.34" transform="translate(-103.72 -188.98)"/><path class="cls-2" d="M899.72,526.47a58,58,0,0,0-31.53-1.21" transform="translate(-103.72 -188.98)"/><path class="cls-2" d="M866.5,529.5c0,4.37-4.58,62.91-5.74,77.65a5.82,5.82,0,0,1-3.29,4.8l-20,9.55" transform="translate(-103.72 -188.98)"/><path class="cls-1" d="M528.5,389.5c-3-1.1-40-12-40-12-8.9-1.53-20.52,3.92-22,9l40,13" transform="translate(-103.72 -188.98)"/><path class="cls-5" d="M230,333a127,127,0,0,1,41.91,28.66,122.63,122.63,0,0,1,27,43A126.71,126.71,0,0,1,306,454.84l-.4,4.92c-.05.53-.08,1.06-.15,1.59l-.42,3.19q-3.84-2.27-7.69-4.3A115,115,0,0,1,302.47,484a124.37,124.37,0,0,0,14.31-21.58c-2.87.94-5.74,1.8-8.59,2.59l.43-3.26c.08-.55.1-1.09.16-1.64l.41-5a130,130,0,0,0-7.37-51.53,125.89,125.89,0,0,0-27.67-44.09,130.37,130.37,0,0,0-43-29.38Z" transform="translate(-103.72 -188.98)"/><path class="cls-5" d="M453.58,266.15a39.55,39.55,0,0,0-11.71,4.67,54.47,54.47,0,0,0-9.88,7.63,100.8,100.8,0,0,0-15.14,19.4A200.85,200.85,0,0,0,405,319.25a203.27,203.27,0,0,0-9.27,22.64,206.06,206.06,0,0,0-6.63,23.54,202.93,202.93,0,0,0-3.9,24.14l-.46,4.77c-.06.55-.08,1.09-.11,1.64l-.2,3.27q-4-2-8-4.09A213.89,213.89,0,0,0,385.82,419,202.55,202.55,0,0,1,396,396.58c-2.78.91-5.57,1.85-8.36,2.85l.19-3.22c0-.54.05-1.08.11-1.62l.46-4.69a199.38,199.38,0,0,1,3.83-23.79,212,212,0,0,1,15.67-45.49,199.34,199.34,0,0,1,11.66-21.08,97.94,97.94,0,0,1,14.66-18.81c5.66-5.47,12.46-9.85,20.05-11.47Z" transform="translate(-103.72 -188.98)"/><path class="cls-5" d="M420.35,696c7.72-9.67,14.33-20.42,18.47-32.22a79.67,79.67,0,0,0,4.11-36.93,91.29,91.29,0,0,0-12.53-35l-2.06-3.35-.91-1.37-1.84-2.73q4.35-.89,8.8-1.58A137.32,137.32,0,0,0,411.92,570a127,127,0,0,1,6.14,23.52q2.54-3.57,4.93-7.34l1.79,2.67.89,1.33,2,3.26a87.85,87.85,0,0,1,12.11,33.77,76.38,76.38,0,0,1-3.95,35.48c-4,11.38-10.4,21.83-17.95,31.29Z" transform="translate(-103.72 -188.98)"/><path class="cls-5" d="M580.91,569.68a76.21,76.21,0,0,1,0-27.56A87.87,87.87,0,0,1,590.11,516a110.92,110.92,0,0,1,16.28-22.56l2.17-2.35c.36-.41.75-.77,1.14-1.14l2.31-2.23c1.06,2.76,2.18,5.48,3.34,8.15A136.9,136.9,0,0,1,626,474a147.93,147.93,0,0,0-24.52,8.13q4.24,1.59,8.34,3.33l-2.37,2.28a16,16,0,0,0-1.16,1.17l-2.23,2.41a113.72,113.72,0,0,0-16.74,23.21,90.93,90.93,0,0,0-9.58,27,79.44,79.44,0,0,0,0,28.72Z" transform="translate(-103.72 -188.98)"/><path class="cls-5" d="M958,408a86.27,86.27,0,0,1-13.42,41.16,83.45,83.45,0,0,1-31.72,29.4,86.43,86.43,0,0,1-42.21,9.71l-3.57-.14-.8-.07-1.59-.15c-1.06-.12-2.12-.16-3.17-.34,1.47-2.52,2.86-5.19,4.13-7.79a76.42,76.42,0,0,1-23.38,4.59,86.21,86.21,0,0,0,21.61,14.87c-1-2.86-2-5.63-2.78-8.53,1.09.18,2.2.23,3.3.35l1.64.16.83.08,3.71.14a89.6,89.6,0,0,0,43.75-10.07,86.52,86.52,0,0,0,32.92-30.51,89.51,89.51,0,0,0,13.92-42.69Z" transform="translate(-103.72 -188.98)"/><path class="cls-5" d="M526,865.27a153.16,153.16,0,0,1,32.34-52.51,149.32,149.32,0,0,1,50.51-35.35,151.94,151.94,0,0,1,60.47-12.14c1.29,0,2.59,0,3.88,0l1.06.05.81,0,1.6.08c1.07.06,2.15.06,3.22.18-1.34,2.6-2.63,5.32-3.85,8a141.16,141.16,0,0,1,23.43-6.85,149.42,149.42,0,0,0-22.44-12.66c1.09,2.8,2.13,5.52,3.09,8.37-1.09-.12-2.19-.12-3.28-.19l-1.64-.07-.82,0-1.09-.05c-1.32-.08-2.64,0-4,0a155.6,155.6,0,0,0-61.72,12.41,152.43,152.43,0,0,0-51.58,36.09,156.41,156.41,0,0,0-33,53.61Z" transform="translate(-103.72 -188.98)"/></svg>